<svg xmlns="http://www.w3.org/2000/svg" xmlns:xlink="http://www.w3.org/1999/xlink" preserveAspectRatio="xMidYMid" width="19.531" height="28.97" viewBox="0 0 19.531 28.97">
  <g>
    <path d="M11.000,28.970 C11.000,17.887 14.162,18.555 16.867,14.593 C19.572,10.630 19.608,2.463 11.387,3.014 C6.936,3.312 6.002,5.741 5.907,8.358 C5.812,10.974 7.499,12.365 9.560,12.811 C11.621,13.258 13.497,12.817 14.127,11.030 C14.757,9.243 14.301,7.969 13.214,7.467 C12.126,6.965 10.276,7.004 10.174,8.477 C10.072,9.950 11.842,10.142 12.300,9.249 " stroke="#000" stroke-width="2px" fill="none" fill-rule="evenodd"/>
    <path d="M8.000,28.970 C8.061,21.063 7.565,17.970 3.000,17.970 C3.000,23.752 7.000,22.066 7.000,25.970 " stroke="#000" stroke-width="2px" fill="none" fill-rule="evenodd" />
  </g>
</svg>
