<svg version="1.1"
	 xmlns="http://www.w3.org/2000/svg" xmlns:xlink="http://www.w3.org/1999/xlink" xmlns:a="http://ns.adobe.com/AdobeSVGViewerExtensions/3.0/"
	 x="0px" y="0px" width="109.1px" height="109px" viewBox="0 0 109.1 166.3" style="enable-background:new 0 0 109.1 109;"
	 xml:space="preserve">
<defs>
</defs>
<path d="M27.2,61.4c-2.7-2.7-5.1-7.7-5.1-17.1V33.2c0-1.9,0.7-5,2.3-7.4c1.3-1.8,3.5-3.7,8.7-3.7s7.4,1.9,8.7,3.7
	c1.7,2.3,2.3,5.5,2.3,7.4v33.2C34.9,66.4,29.9,64.1,27.2,61.4z M33.2,144c-5.3,0-7.5-1.9-8.7-3.7c-1.7-2.3-2.3-5.5-2.3-7.4v-22.1H0
	v22.1c0,5.5,1.5,13.4,6.5,20.3c5.4,7.4,14.2,12.9,26.7,12.9s21.3-5.5,26.7-12.9c5-6.9,6.5-14.9,6.5-20.3V33.2
	c0-5.5-1.5-13.4-6.5-20.3C54.5,5.4,45.7,0,33.2,0S11.9,5.4,6.5,12.9C1.5,19.8,0,27.8,0,33.2v11.1C0,57.1,3.2,68.7,11.5,77
	c8.3,8.3,20,11.5,32.7,11.5v44.3c0,1.9-0.7,5.1-2.3,7.4C40.7,142,38.5,144,33.2,144z"/>
<rect x="64.5" y="67.6" class="st0" width="44.6" height="19.8"/>
<rect x="87" y="80.1" class="st0" width="22.1" height="86.1"/>
</svg>
