<?xml version="1.0" encoding="UTF-8" standalone="no"?>
<svg
   xmlns:dc="http://purl.org/dc/elements/1.1/"
   xmlns:cc="http://creativecommons.org/ns#"
   xmlns:rdf="http://www.w3.org/1999/02/22-rdf-syntax-ns#"
   xmlns:svg="http://www.w3.org/2000/svg"
   xmlns="http://www.w3.org/2000/svg"
   viewBox="0 0 943.90167 429.23651"
   height="429.23651"
   width="943.90167"
   id="svg815"
   version="1.1">
  <metadata
     id="metadata821">
    <rdf:RDF>
      <cc:Work
         rdf:about="">
        <dc:format>image/svg+xml</dc:format>
        <dc:type
           rdf:resource="http://purl.org/dc/dcmitype/StillImage" />
        <dc:title></dc:title>
      </cc:Work>
    </rdf:RDF>
  </metadata>
  <defs
     id="defs819" />
  <path
     id="path859"
     d="m 656.71997,427.08374 c -3.7463,-1.55571 -4.6992,-2.60436 -4.1779,-4.59796 0.6059,-2.31675 -0.059,-2.58261 -6.4522,-2.58261 -5.2451,0 -10.9183,-1.49662 -21.4804,-5.66667 -7.894,-3.11667 -14.3566,-6.04372 -14.3612,-6.50457 0,-0.46086 10.4046,-1.27174 23.1317,-1.80195 12.7272,-0.53021 23.6903,-1.35316 24.3625,-1.82876 0.6722,-0.4756 4.2919,-8.66472 8.0439,-18.19806 l 6.8216,-17.33333 -6.5175,-0.40301 -6.5173,-0.40302 v -29.66394 -29.66394 l -16.6667,-14.45331 c -9.1666,-7.94932 -16.6666,-15.26918 -16.6666,-16.26637 0,-2.27516 -2.251,-2.38468 -3.0088,-0.14641 -0.4376,1.29214 -2.6164,1.13576 -9.696,-0.69592 -5.0223,-1.29942 -9.4315,-2.66258 -9.7982,-3.02926 -0.3666,-0.36666 0.6806,-3.4395 2.327,-6.82854 2.1097,-4.34235 2.5761,-6.57943 1.5797,-7.57591 -0.9965,-0.99648 0.045,-2.90864 3.5284,-6.47553 2.7183,-2.78383 5.3651,-5.06151 5.8817,-5.06151 0.5166,0 4.8392,-3.9 9.6059,-8.66667 4.7667,-4.76666 9.7723,-8.65921 11.1235,-8.6501 1.3512,0.009 7.8525,1.50912 14.4474,3.33333 6.5948,1.82423 12.1448,3.31677 12.3334,3.31677 0.1884,0 0.3421,-1.05 0.3414,-2.33333 0,-1.90957 -4.965,-3.65431 -27.3333,-9.60703 -15.0327,-4.00053 -27.3321,-7.30084 -27.3321,-7.33404 0,-0.88112 19.8714,-73.04152 20.2064,-73.37637 0.268,-0.26811 11.2813,2.45626 24.4738,6.05416 13.1926,3.59789 24.9215,6.554 26.0644,6.56912 1.5778,0.0209 2.9704,-3.97884 5.7851,-16.61468 2.0389,-9.15321 4.0021,-17.77058 4.3628,-19.14973 0.4547,-1.73845 -0.1951,-2.73004 -2.1184,-3.233 -3.822,-0.99949 -3.4973,-3.64177 0.4475,-3.64177 3.519,0 2.4913,3.38916 13.4436,-44.333331 l 3.5954,-15.66667 h 71.2031 71.2029 v 34.66667 c 0,29.925921 0.2735,34.666661 2,34.666661 1.1,0 2,0.61883 2,1.37518 0,0.75636 -0.9,1.72054 -2,2.14265 -1.74,0.66772 -2,9.24088 -2,65.95816 v 65.19069 l 27,0.17646 c 14.85,0.0971 36.224,0.54706 47.4976,1 l 20.4976,0.82354 -47.4976,34.43356 -47.4976,34.43355 v 19.14038 c 0,18.83415 -0.048,19.14719 -3,19.56644 -2.9186,0.41452 -3.0609,1.18486 -5.2466,28.42607 -1.2358,15.4 -2.2858,29.05 -2.3334,30.33334 -0.072,1.92889 -1.3577,2.33333 -7.42,2.33333 -5.6296,0 -7.3333,-0.46464 -7.3333,-2 0,-1.1 -0.5245,-2 -1.1657,-2 -0.6411,0 -3.7166,0.9 -6.8343,2 -3.8807,1.36917 -10.5572,1.96659 -21.1676,1.89408 l -15.4991,-0.10587 21.6667,-10.4871 21.6667,-10.48712 v -5.86622 c 0,-3.22642 -0.3912,-12.25956 -0.8694,-20.07364 l -0.8692,-14.20747 h -61.6969 -61.6969 l -15.7672,30.65765 c -10.1348,19.70613 -16.4815,30.63632 -17.7671,30.59796 -1.1,-0.0328 -4.184,-0.96659 -6.8532,-2.07503 z m 76.1865,-113.84724 v -53.33334 h -35.3333 -35.3333 v 16 c 0,11.91791 0.4252,15.99675 1.6666,15.98725 0.9167,-0.007 16.3667,-6.89442 34.3334,-15.30537 l 32.6666,-15.29263 0.3487,52.63871 c 0.1917,28.9513 0.6417,52.63871 1,52.63871 0.3583,0 0.6513,-24 0.6513,-53.33333 z m 15.4052,42.55049 c 1.2546,-2.02999 -1.47,-4.40011 -3.9597,-3.44468 -1.1979,0.45968 -1.7363,1.65549 -1.2804,2.84372 0.91,2.3714 3.9317,2.71795 5.2401,0.60096 z m 88.831,-21.87637 7.5693,-5.47767 -2.7003,-4.26489 c -1.4852,-2.3457 -3.1754,-4.2649 -3.7561,-4.2649 -0.5807,0 -4.7433,2.71467 -9.2504,6.03259 -5.4736,4.02943 -7.8467,6.57888 -7.1467,7.67775 3.9059,6.13136 5.0746,7.35509 6.315,6.61265 0.7698,-0.46081 4.806,-3.30281 8.9692,-6.31553 z m -88.5691,2.32658 c 0.7291,-2.1895 -3.4487,-3.75245 -5.2405,-1.96058 -0.7668,0.7668 -0.9706,2.07969 -0.4527,2.91753 1.178,1.90615 4.9511,1.27196 5.6932,-0.95695 z m 0,-18.66666 c 0.7291,-2.18951 -3.4487,-3.75246 -5.2405,-1.96059 -0.7668,0.7668 -0.9706,2.07969 -0.4527,2.91753 1.178,1.90615 4.9511,1.27196 5.6932,-0.95694 z m 135.9947,-35.50302 5.9268,-4.16436 -8.461,-0.84416 c -4.6534,-0.46428 -14.0109,-0.91428 -20.7942,-1 l -12.3334,-0.15584 v 16.02236 16.02238 l 14.8675,-10.85802 c 8.1771,-5.97191 17.5344,-12.73197 20.7943,-15.02236 z m -135.9947,16.83635 c 0.7291,-2.18951 -3.4487,-3.75246 -5.2405,-1.96059 -0.7668,0.7668 -0.9706,2.07969 -0.4527,2.91753 1.178,1.90615 4.9511,1.27196 5.6932,-0.95694 z m 98.9792,-24.00071 0.02,-15 -57,0.10533 c -31.35,0.0579 -56.3001,0.39119 -55.4447,0.74067 0.8555,0.34948 26.0555,7.71811 56,16.37475 37.463,10.8301 54.7503,15.2777 55.4243,14.25933 0.5388,-0.81401 0.9888,-8.23001 1,-16.48001 z m -98.9792,6.66737 c 0.7877,-2.36605 -3.6947,-3.78 -5.0469,-1.59198 -0.611,0.9885 -0.7946,2.30916 -0.4079,2.93477 0.9868,1.59673 4.7876,0.66111 5.4548,-1.34279 z m -86.3873,-34.12573 c 0.8697,-2.81877 1.3102,-5.39607 0.979,-5.72733 -1.8066,-1.80667 -28.9254,17.87914 -28.9254,20.9973 0,0.69964 1.05,1.66226 2.3333,2.13914 1.2833,0.47688 6.8333,4.77546 12.3333,9.5524 l 10,8.68536 0.8492,-15.26092 c 0.4671,-8.39351 1.5608,-17.56719 2.4306,-20.38595 z m -29.779,23.72323 c 1.6318,-2.49027 1.8328,-3.79791 0.7507,-4.88011 -1.0823,-1.08219 -2.1952,-0.61727 -4.1539,1.73513 -1.4716,1.76739 -2.6954,3.96344 -2.7198,4.88011 -0.077,2.90203 3.8056,1.80171 6.123,-1.73513 z m -18.0214,-16.93154 2.9941,-4.33333 -3.57,3.23241 c -1.9636,1.77784 -3.5701,3.72784 -3.5701,4.33334 0,2.01718 1.1242,1.1406 4.146,-3.23242 z m 182.5206,-23.66666 v -28.00001 h -31.9213 c -17.5567,0 -32.2,-0.45 -32.5407,-1 -0.3406,-0.55 14.3239,-0.82992 32.588,-0.62204 l 33.2074,0.37798 v 12.12758 12.12759 l 8,-0.90509 c 5.0478,-0.57109 8,-0.41307 8,0.42824 0,0.73333 -3.6,1.74063 -8,2.23843 l -8,0.90509 v 15.19188 15.19188 l 23.6666,-0.36411 23.6667,-0.36409 0.3463,-64.48094 c 0.3278,-61.06952 0.222,-64.43461 -2,-63.60533 -33.9716,12.67809 -35.3383,13.33127 -37.2292,17.7938 -1.0196,2.4058 -3.7879,5.55356 -6.152,6.99501 -10.3911,6.3357 -23.6307,-0.3866 -23.6326,-11.99922 l -6e-4,-4.70332 -13.4315,-4.18217 -13.4315,-4.18216 -1.2721,2.84883 -1.272,2.84883 0.5596,-2.92398 c 0.4668,-2.43948 -0.4011,-3.25128 -5.2379,-4.89933 -5.5197,-1.88076 -5.8378,-1.84805 -6.641,0.68263 -1.2272,3.86668 -8.4831,7.79661 -14.4055,7.80236 -6.5244,0.007 -13.5428,-6.46908 -14.9099,-13.75652 -0.8696,-4.63503 -1.2008,-4.90516 -6.0153,-4.90516 -3.6987,0 -5.2856,0.63948 -5.7904,2.33333 -1.1757,3.94599 -8.8177,37.78416 -8.8177,39.04459 0,0.65228 2.3897,1.82947 5.3106,2.61597 7.4283,2.00024 8.5371,4.80719 7.6062,19.25658 -0.9247,14.3523 -4.6403,28.28909 -10.8007,40.51087 -5.8716,11.6491 -8.6773,14.1544 -14.7484,13.16918 -4.2647,-0.69204 -4.7665,-0.43474 -5.5028,2.82066 -0.4455,1.97018 -1.6473,6.96877 -2.6708,11.10794 -1.0235,4.13919 -1.8608,8.18919 -1.8608,9 37.503,-4.29138 133.3333,31.08401 133.3333,-26.52578 z m -100.5249,-15.77061 c -0.4271,-0.69102 -0.2243,-2.97533 0.4505,-5.07624 0.6748,-2.1009 2.1844,-7.26982 3.3547,-11.48649 2.1243,-7.65461 4.2748,-9.41595 7.1972,-5.89465 1.0919,1.31558 0.6927,4.49233 -1.5496,12.33333 -2.4499,8.56671 -3.5544,10.63868 -5.8483,10.97091 -1.5553,0.22526 -3.1774,-0.15582 -3.6045,-0.84686 z m 36.6301,-18.3405 c 0.064,-1.55327 0.38,-1.8692 0.8056,-0.80556 0.3852,0.96249 0.3379,2.1125 -0.1053,2.55556 -0.4431,0.44305 -0.7583,-0.34446 -0.7004,-1.75 z m 1.3334,-5.33334 c 0.064,-1.55326 0.38,-1.8692 0.8056,-0.80556 0.3852,0.9625 0.3378,2.11251 -0.1054,2.55556 -0.443,0.44306 -0.7582,-0.34445 -0.7004,-1.75 z m 1.4386,-5.88889 c 0,-1.83333 0.3027,-2.58333 0.6726,-1.66667 0.3698,0.91667 0.3698,2.41667 0,3.33334 -0.3699,0.91666 -0.6726,0.16666 -0.6726,-1.66667 z m 1.228,-6.11111 c 0.064,-1.55326 0.38,-1.8692 0.8056,-0.80556 0.3852,0.9625 0.3379,2.1125 -0.1053,2.55556 -0.4431,0.44306 -0.7583,-0.34445 -0.7004,-1.75 z m 1.3334,-5.33333 c 0.064,-1.55327 0.38,-1.8692 0.8056,-0.80556 0.3852,0.96249 0.3378,2.11249 -0.1054,2.55556 -0.443,0.44305 -0.7582,-0.34445 -0.7004,-1.75 z m 1.4386,-5.88889 c 0,-1.83334 0.3027,-2.58334 0.6726,-1.66667 0.3698,0.91667 0.3698,2.41667 0,3.33333 -0.3699,0.91667 -0.6726,0.16667 -0.6726,-1.66666 z m 1.228,-6.11111 c 0.064,-1.55327 0.38,-1.8692 0.8056,-0.80556 0.3852,0.96249 0.3379,2.11249 -0.1053,2.55556 -0.4431,0.44305 -0.7583,-0.34445 -0.7004,-1.75 z m 1.4387,-5.88889 c 0,-1.83334 0.3027,-2.58334 0.6725,-1.66667 0.3699,0.91667 0.3699,2.41667 0,3.33333 -0.3698,0.91667 -0.6725,0.16667 -0.6725,-1.66666 z m 1.228,-6.11111 c 0.064,-1.55327 0.38,-1.8692 0.8056,-0.80556 0.3852,0.96249 0.3379,2.11249 -0.1053,2.55556 -0.4431,0.44305 -0.7583,-0.34445 -0.7004,-1.75 z m 1.3333,-5.33333 c 0.064,-1.55327 0.38,-1.8692 0.8056,-0.80556 0.3852,0.96249 0.3379,2.11249 -0.1053,2.55556 -0.4431,0.44305 -0.7583,-0.34446 -0.7004,-1.75 z m 1.4387,-5.8889 c 0,-1.83333 0.3027,-2.58333 0.6725,-1.66666 0.3699,0.91666 0.3699,2.41666 0,3.33333 -0.3698,0.91667 -0.6725,0.16667 -0.6725,-1.66667 z m 54.5587,12.10256 c 5.2344,-5.23437 5.432,-12.87106 0.4616,-17.84144 -5.572,-5.57204 -12.9174,-5.54433 -18.5315,0.0699 -7.6703,7.67017 -1.6617,21.66899 9.3007,21.66899 3.6068,0 5.8837,-1.01196 8.7692,-3.89744 z m 26.8974,-17.63619 18.3334,-6.91413 V 92.352029 58.582019 l -68.5828,0.0133 c -63.9372,0.012 -68.6306,0.16968 -69.2859,2.32724 -1.1683,3.84648 -5.9947,26.22884 -5.7159,26.50759 0.388,0.38799 48.5508,5.80675 51.6112,5.80675 1.5854,0 2.682,-0.9322 2.7452,-2.33334 0.057,-1.28333 0.37,-1.69736 0.6934,-0.92008 0.3234,0.7773 -0.2739,4.9773 -1.3275,9.33334 -1.0536,4.356051 -1.9656,6.910501 -2.0267,5.676601 -0.061,-1.23392 -1.161,-2.54902 -2.4444,-2.92246 -6.1744,-1.79665 -49.754,-9.191171 -50.3944,-8.550841 -0.4021,0.40224 -1.8205,5.30307 -3.1517,10.890741 l -2.4205,10.15893 h 5.2396 c 4.2608,0 6.0616,-0.87172 9.6406,-4.66667 3.8687,-4.10197 5.1934,-4.66666 10.9472,-4.66666 3.7738,0 7.804,0.88125 9.5168,2.08093 3.6786,2.57657 6.9558,8.71927 6.9558,13.0378 0,2.68223 0.8749,3.43403 5,4.29617 5.8418,1.22098 5.3962,1.08976 9.6666,2.84634 1.8334,0.7541 8.0032,2.7471 13.7107,4.42889 l 10.3773,3.05779 3.7231,-3.56688 c 4.6315,-4.43726 10.2435,-6.08375 15.7451,-4.6194 4.4086,1.17346 11.1105,7.93369 11.1105,11.20733 0,1.04374 0.45,1.90831 1,1.92128 0.55,0.0133 9.25,-3.08777 19.3333,-6.89055 z m -77.4561,-11.7997 c 0,-1.83334 0.3027,-2.58334 0.6725,-1.66667 0.3699,0.91667 0.3699,2.41667 0,3.33333 -0.3698,0.91667 -0.6725,0.16667 -0.6725,-1.66666 z m 1.228,-6.11111 c 0.064,-1.55327 0.38,-1.8692 0.8056,-0.80556 0.3852,0.96249 0.3379,2.11249 -0.1053,2.55556 -0.4431,0.44305 -0.7583,-0.34445 -0.7004,-1.75 z m 1.3333,-5.33333 c 0.064,-1.55327 0.38,-1.8692 0.8056,-0.80556 0.3852,0.96249 0.3379,2.11249 -0.1053,2.55556 -0.4431,0.44305 -0.7583,-0.34446 -0.7004,-1.75 z m 20.8872,-3.44391 c -0.372,-2.44475 -0.5974,-4.54443 -0.501,-4.66597 0.096,-0.1216 11.8753,-2.091841 26.1753,-4.378431 14.3,-2.28659 27.35,-4.44857 29,-4.80441 2.2372,-0.48248 3,-0.0384 3,1.74638 0,2.00143 -4.3124,3.46092 -26.3333,8.912361 -14.4834,3.58544 -27.3079,6.77011 -28.499,7.07702 -1.5926,0.41038 -2.3445,-0.61803 -2.842,-3.88695 z m -15.5538,-20.556091 c 0.064,-1.55327 0.38,-1.8692 0.8056,-0.80556 0.3852,0.96249 0.3378,2.11249 -0.1054,2.55556 -0.443,0.44305 -0.7582,-0.34446 -0.7004,-1.75 z m 1.3333,-5.33334 c 0.064,-1.55326 0.38,-1.8692 0.8056,-0.80556 0.3852,0.9625 0.3379,2.1125 -0.1053,2.55556 -0.4431,0.44306 -0.7583,-0.34445 -0.7004,-1.75 z m 1.4387,-5.88889 c 0,-1.83333 0.3026,-2.58333 0.6725,-1.66667 0.3699,0.91667 0.3699,2.41667 0,3.33334 -0.3699,0.91666 -0.6725,0.16666 -0.6725,-1.66667 z m 1.228,-6.11111 c 0.064,-1.55326 0.38,-1.8692 0.8056,-0.80556 0.3852,0.9625 0.3378,2.1125 -0.1054,2.55556 -0.443,0.44306 -0.7582,-0.34445 -0.7004,-1.75 z m 1.3333,-5.33333 c 0.064,-1.55327 0.38,-1.8692 0.8056,-0.80556 0.3852,0.96249 0.3379,2.11249 -0.1053,2.55556 -0.4431,0.44305 -0.7583,-0.34445 -0.7004,-1.75 z m -33.9279,67.748121 c 6.8632,-5.55943 7.6495,-13.34868 1.9252,-19.07291 -4.4604,-4.46044 -12.1517,-5.31517 -17.0372,-1.8933 -3.8685,2.70964 -6.1777,9.98338 -4.5382,14.29537 3.0084,7.9126 13.6552,11.52697 19.6502,6.67084 z m -117.844,113.47995 c -0.9166,-0.36988 -1.6666,-1.74352 -1.6666,-3.0525 0,-1.7902 1.398,-2.56751 5.6412,-3.13664 3.1025,-0.41615 5.8838,-0.51388 6.1805,-0.21718 0.2967,0.29671 -0.4556,2.0582 -1.6719,3.91442 -2.099,3.20365 -4.7729,3.98905 -8.4832,2.4919 z m -50.7368,-11.8629 c 0.389,-1.42307 8.3967,-30.92966 17.7948,-65.57021 9.3982,-34.64053 17.3479,-62.7224 17.6662,-62.40413 0.3182,0.31826 1.9225,4.42446 3.5649,9.12489 4.8416,13.85573 13.8467,25.15772 21.5943,27.10224 1.7141,0.43023 3.0906,1.46719 3.0588,2.30436 -0.032,0.83716 -4.3855,17.42212 -9.675,36.85546 l -9.617,35.33333 -8.6584,0.70127 c -10.6108,0.85938 -18.2374,4.24817 -28.5471,12.68479 -5.6285,4.60596 -7.686,5.7141 -7.1815,3.868 z m 3.7368,-52.19998 c -1.1,-0.40445 -2.9618,-1.57031 -4.1374,-2.59077 -1.9566,-1.69832 -1.9174,-2.67131 0.4617,-11.4927 3.3276,-12.33781 4.5721,-13.67168 11.2184,-12.02346 2.8183,0.69888 5.0625,1.82166 4.9872,2.4951 -0.075,0.67343 -1.5104,6.47442 -3.1895,12.89108 -3.0933,11.82182 -3.8825,12.72759 -9.3404,10.72075 z"
     style="display:inline;fill:#000000;stroke-width:1.33333337" />
  <path
     id="path865"
     d="m 497.57317,95.366949 c -9.6901,-3.07264 -16.1735,-7.21686 -23.0349,-14.72448 -23.7743,-26.01286 -12.5272,-67.59177 21.325,-78.8356898 9.264,-3.07702 26.0668,-2.10392001 34.6651,2.00754 17.2759,8.2609198 28.9757,26.3770198 29.0289,44.9483798 0.023,8.05023 -4.6426,21.54295 -9.9233,28.69699 -11.4383,15.49626 -34.5708,23.453131 -52.0608,17.90726 z m 22.6047,-2.83162 c 11.5742,-1.8769 24.1122,-11.46927 30.8222,-23.58098 3.5892,-6.47856 3.9064,-8.13404 3.9064,-20.38453 0,-11.36382 -0.4686,-14.27707 -3.1729,-19.72228 -14.6855,-29.56971981 -53.1547,-34.8287898 -75.318,-10.2966 -8.2153,9.0933 -10.8143,16.14416 -10.8293,29.38025 -0.013,10.16744 0.4481,12.29832 4.3762,20.27736 4.8346,9.82038 12.1996,17.14678 21.4382,21.3257 6.2325,2.81916 16.4716,4.91008 20.8392,4.25553 1.4666,-0.21981 5.0388,-0.78432 7.938,-1.25445 z m -14.3824,-10.8544 c -1.636,-1.63595 -0.912,-8.09882 1.0937,-9.7634 5.0363,-4.17974 12.8493,3.63334 8.6696,8.66961 -1.6645,2.00571 -8.1275,2.72973 -9.7633,1.09379 z m 2.513,-20.77778 c -0.2829,-0.91666 -0.8697,-7.66666 -1.304,-15 -0.4344,-7.33333 -1.1668,-17.68333 -1.6277,-23 l -0.8381,-9.66667 h 5.7112 5.7112 l -0.9052,18.33334 c -1.2332,24.97371 -2.0814,31 -4.363,31 -1.0285,0 -2.1014,-0.75 -2.3844,-1.66667 z m -218.7353,18.12447 c -20.2605,-10.64741 -22.1427,-36.83535 -3.5324,-49.15098 11.4021,-7.54558 26.168,-5.3682 36.0109,5.31024 11.969,12.98471 8.097,34.61362 -7.6882,42.94725 -7.0083,3.69997 -18.6515,4.11961 -24.7903,0.89349 z m 21.9735,-3.4578 c 13.2532,-6.77112 18.1833,-20.5746 11.7804,-32.98216 -6.707,-12.99631 -21.713,-17.6897 -34.1531,-10.68196 -17.464,9.8377 -16.6992,34.89856 1.3375,43.82653 7.3565,3.64136 13.6857,3.5925 21.0352,-0.16241 z m -14.1924,-5.75629 c -0.441,-1.1493 -0.1174,-2.77358 0.7181,-3.60952 1.8765,-1.87659 6.3223,1.958 4.9132,4.23786 -1.3308,2.15327 -4.7085,1.77639 -5.6313,-0.62834 z m 1.7293,-10.59647 c -0.464,-1.20927 -0.8437,-6.9936 -0.8437,-12.85406 0,-9.43881 0.2664,-10.60152 2.3333,-10.18362 2.0448,0.41342 2.2784,1.86802 1.8895,11.76442 -0.4391,11.1729 -1.7454,15.53074 -3.3791,11.27326 z"
     style="display:inline;fill:#000000;stroke-width:1.33333337" />
  <path
     style="display:inline;fill:#000000;stroke-width:1.33333337"
     d="m 943.90167,260.56983 c -1634.88567,112.44444 -817.4428,56.22222 0,0 z m -584.9952,93.55676 c -2.9333,-0.96683 -6.7698,-2.53007 -8.5257,-3.47385 -6.0225,-3.23723 -15.0483,-12.64638 -18.5739,-19.36271 -3.0892,-5.88515 -3.53,-8.29417 -3.5473,-19.38687 -0.023,-14.81581 2.7963,-22.21951 11.9452,-31.36843 9.1489,-9.14892 16.5525,-11.96825 31.3684,-11.94516 11.1161,0.0173 13.4827,0.4524 19.3333,3.55442 8.6294,4.57532 17.0824,13.36601 20.9232,21.75917 4.2398,9.26483 4.3286,26.55607 0.1826,35.56756 -4.0919,8.89408 -12.8498,17.8001 -21.5819,21.94695 -8.9241,4.23799 -23.1704,5.46221 -31.5239,2.70892 z m 29.4487,-5.51744 c 17.636,-7.86757 27.3568,-27.69043 22.6288,-46.14535 -6.6873,-26.10343 -33.6596,-38.90607 -57.4473,-27.26785 -23.3383,11.41837 -30.2259,41.31503 -14.1896,61.59236 11.7661,14.87777 31.4908,19.63543 49.0081,11.82084 z m -22,-7.15709 c -3.0101,-5.62462 1.4368,-10.33984 7.6011,-8.05954 2.923,1.0813 3.7318,4.25559 2.1409,8.40159 -1.1437,2.98067 -8.0943,2.73663 -9.742,-0.34205 z m 2.0607,-28.5489 c -0.4803,-6.78333 -1.249,-17.28333 -1.708,-23.33333 l -0.8347,-11 h 4.7713 c 2.6242,0 5.0674,0.47896 5.4291,1.06434 0.3619,0.58539 -0.015,11.08539 -0.838,23.33334 -1.2972,19.31011 -1.7916,22.26899 -3.7212,22.26899 -1.8548,0 -2.3707,-2.05322 -3.0985,-12.33334 z m 149.1573,14.32967 c -9.8607,-3.48811 -18.0333,-15.31555 -17.9633,-25.99634 0.032,-4.7975 4.3409,-13.41908 8.7952,-17.59593 9.876,-9.26084 23.143,-10.00495 34.1772,-1.91689 4.7638,3.49202 10.3324,14.72872 10.2949,20.77461 -0.065,10.50236 -9.3295,22.4723 -19.6009,25.32471 -6.514,1.80899 -9.207,1.70777 -15.7031,-0.59016 z m 22.3487,-6.33005 c 12.8081,-9.76927 12.0172,-28.80639 -1.5776,-37.96789 -6.2671,-4.22342 -17.9366,-4.23877 -24.118,-0.0317 -7.8814,5.36403 -9.9864,9.48181 -9.9864,19.53489 0,7.71314 0.5129,9.67849 3.5728,13.69026 5.1692,6.77715 10.9042,9.28904 19.9634,8.7438 5.6251,-0.33855 8.7054,-1.34523 12.1458,-3.96933 z m -16.2096,-0.88672 c -2.5211,-1.59462 -0.7635,-5.762 2.1902,-5.19318 1.2855,0.24758 2.3374,1.59192 2.3374,2.98743 0,2.95832 -1.8856,3.87691 -4.5276,2.20575 z m 0.7176,-17.64182 c -1.4967,-14.31903 -1.199,-17.13775 1.81,-17.13775 2.0225,0 2.6644,0.88574 2.6572,3.66667 -0.02,7.60057 -1.7466,21.66667 -2.66,21.66667 -0.523,0 -1.3362,-3.68801 -1.8072,-8.19559 z m -74.2751,-23.47108 c -8.9424,-4.53511 -15.1551,-12.4592 -17.3068,-22.07411 -4.3487,-19.4319 11.1919,-38.30503 31.4795,-38.22995 10.2396,0.0379 17.2212,3.26157 24.1764,11.1631 23.0208,26.15304 -7.2335,64.92127 -38.3491,49.14096 z m 28.9181,-3.69373 c 8.2595,-4.84031 12.8763,-12.30684 13.574,-21.95222 0.7359,-10.17408 -1.5312,-16.5484 -8.2893,-23.30645 -17.2991,-17.29908 -46.7699,-6.329 -48.5345,18.06623 -1.7231,23.82142 22.7482,39.20722 43.2498,27.19244 z m -17.2774,-2.86183 c -0.489,-0.48888 -0.889,-2.28888 -0.889,-4 0,-2.40101 0.7355,-3.11111 3.2223,-3.11111 3.6807,0 4.9668,2.26518 3.2173,5.66667 -1.2157,2.36379 -3.9261,3.06908 -5.5506,1.44444 z m 1.1712,-14.11111 c -0.2875,-0.91666 -0.9088,-8.11666 -1.3807,-16 -0.8343,-13.94077 -0.7812,-14.33333 1.9399,-14.33333 4.0213,0 4.4749,2.39965 3.409,18.03677 -0.8434,12.37603 -2.4154,17.24698 -3.9682,12.29656 z m -84.7927,-86.74265 c -18.1007,-5.10058 -29.7247,-20.27974 -29.8073,-38.92402 -0.056,-12.52943 3.836,-21.20381 13.4577,-29.99756 30.3672,-27.753891 76.8791,2.52351 65.0529,42.34678 -2.663,8.96716 -12.8885,20.28326 -21.7881,24.11177 -8.4549,3.63719 -19.2445,4.62456 -26.9152,2.46303 z m 23.0063,-4.32972 c 14.3173,-4.87843 24.352,-19.47262 24.1826,-35.17081 -0.1186,-10.93922 -3.8078,-19.25706 -11.818,-26.64052 -23.892,-22.016941 -59.5364,0.89311 -61.6801,24.54264 -0.5328,8.3025 -0.1481,10.74806 2.6533,16.86718 8.3768,18.2976 27.8498,26.81151 46.6622,20.40151 z m -16.94,-7.26034 c -0.505,-0.81704 -0.5407,-2.98925 -0.08,-4.82714 0.6761,-2.69367 1.5406,-3.2607 4.4589,-2.92423 3.0407,0.35061 3.6201,1.05761 3.6201,4.41741 0,3.3374 -0.5865,4.06788 -3.5408,4.40975 -1.9473,0.22536 -3.9538,-0.25875 -4.4588,-1.07579 z m 1.202,-34.00293 -1.2024,-19.33564 4.4932,0.003 4.4932,0.003 -0.8884,15.66667 c -1.0714,18.89487 -1.7856,23 -4.0016,23 -1.2336,0 -2.0172,-5.23523 -2.894,-19.33564 z"
     id="path861" />
</svg>
