<svg xmlns="http://www.w3.org/2000/svg" xmlns:xlink="http://www.w3.org/1999/xlink"><defs><clipPath id="clip0"><path fill="#fff" d="M0 0h44.005v44H0z"/></clipPath></defs><symbol id="arrow-min"><path d="M7.515.515l-.89.89 3.964 3.965H0v1.26H10.59l-3.965 3.964.891.891L13 6 7.515.515z"/></symbol><symbol id="arrow"><path d="M30 13.478H2M13.586 24.728L2.272 13.414M13.586 2L2.272 13.314"/></symbol><symbol id="arrow_down"><path stroke="#7E2E7A" d="M.354.646l4 4M7.646.646l-4 4"/></symbol><symbol id="arrow_min"><path d="M7.515.515l-.89.89 3.964 3.965H0v1.26H10.59l-3.965 3.964.891.891L13 6 7.515.515z" fill="#852E81"/></symbol><symbol id="aut"><path d="M1.096 0h8.312a.594.594 0 010 1.187H1.69v16.625h7.718a.594.594 0 010 1.188H1.096a.594.594 0 01-.594-.594V.594C.502.266.768 0 1.096 0z"/><path d="M14.526 13.031a.604.604 0 000 .803.49.49 0 00.735 0L18.849 9.9a.609.609 0 000-.803l-3.588-3.932a.49.49 0 00-.736 0 .604.604 0 000 .803l2.705 2.963H6.52c-.287 0-.52.254-.52.568 0 .313.233.567.52.567h10.71l-2.704 2.964z"/></symbol><symbol id="callback"><path d="M1.888 14.455l-.114.911a.75.75 0 01-.834.65c-.378-.047-.687-.356-.65-.833l.342-2.74a.75.75 0 01.83-.651l2.777.338a.747.747 0 11-.184 1.48l-1.032-.125a7.446 7.446 0 008.291 2.656c3.068-.988 5.173-3.89 5.18-7.097 0-.474.316-.775.727-.786.412-.007.764.287.764.786 0 3.85-2.53 7.336-6.215 8.519a8.924 8.924 0 01-9.882-3.108zM13.746 5.866a.747.747 0 11.184-1.48l1.032.125a7.446 7.446 0 00-8.29-2.656c-3.068.988-5.173 3.89-5.18 7.097 0 .474-.316.775-.728.786C.353 9.746 0 9.452 0 8.952-.004 5.106 2.527 1.62 6.212.437A8.932 8.932 0 0116.1 3.545l.114-.911a.75.75 0 01.834-.65c.378.047.687.356.65.833l-.342 2.74a.75.75 0 01-.83.651l-2.78-.342z"/></symbol><symbol id="china" viewBox="-49 141 512 512"><style>.st1{fill:#ffda44}</style><circle cx="207" cy="397" r="256" fill="#d80027"/><path class="st1" d="M91.1 296.8l22.1 68h71.5l-57.8 42.1 22.1 68-57.9-42-57.9 42 22.2-68-57.9-42.1H69zM254.5 537.5l-16.9-20.8-25 9.7 14.5-22.5-16.9-20.9 25.9 6.9 14.6-22.5 1.4 26.8 26 6.9-25.1 9.6zM288.1 476.5l8-25.6-21.9-15.5 26.8-.4 7.9-25.6 8.7 25.4 26.8-.3-21.5 16 8.6 25.4-21.9-15.5zM333.4 328.9L321.6 353l19.2 18.7-26.5-3.8-11.8 24-4.6-26.4-26.6-3.8 23.8-12.5-4.6-26.5 19.2 18.7zM255.2 255.9l-2 26.7 24.9 10.1-26.1 6.4-1.9 26.8-14.1-22.8-26.1 6.4 17.3-20.5-14.2-22.7 24.9 10.1z"/></symbol><symbol id="close" viewBox="0 0 512.001 512.001"><path d="M284.286 256.002L506.143 34.144c7.811-7.811 7.811-20.475 0-28.285-7.811-7.81-20.475-7.811-28.285 0L256 227.717 34.143 5.859c-7.811-7.811-20.475-7.811-28.285 0-7.81 7.811-7.811 20.475 0 28.285l221.857 221.857L5.858 477.859c-7.811 7.811-7.811 20.475 0 28.285a19.938 19.938 0 0014.143 5.857 19.94 19.94 0 0014.143-5.857L256 284.287l221.857 221.857c3.905 3.905 9.024 5.857 14.143 5.857s10.237-1.952 14.143-5.857c7.811-7.811 7.811-20.475 0-28.285L284.286 256.002z"/></symbol><symbol id="docs"><path d="M8.066 17.6H26.4a.733.733 0 100-1.467H8.066a.733.733 0 100 1.467zM8.066 11.734h7.332a.734.734 0 000-1.467H8.067a.734.734 0 000 1.467zM8.066 23.467H26.4a.734.734 0 000-1.467H8.066a.734.734 0 000 1.467zM20.532 27.867H8.066a.733.733 0 000 1.467h12.466a.733.733 0 100-1.467zM18.332 33.733H8.066a.734.734 0 000 1.467h10.266a.734.734 0 000-1.467z" fill="#232020"/><path d="M34.467 25.2V10.7L23.77 0H0v44h32.267a9.528 9.528 0 002.2-18.8zM24.2 2.5l7.763 7.763H24.2V2.5zm2.991 40.03H1.467V1.467h21.266v10.266H33v13.233a8.774 8.774 0 00-.733-.032 9.544 9.544 0 00-9.533 9.533 9.59 9.59 0 00.064 1.068c.032.28.072.557.127.829l.022.1c.053.248.117.491.188.732.018.06.035.121.054.18.083.258.176.511.279.76l.062.139a9.2 9.2 0 00.307.637l.078.15c.128.233.266.46.414.68.034.051.069.1.1.149.133.193.274.382.422.565.028.034.054.07.083.1a9.848 9.848 0 001.23 1.229c.017.015.033.03.051.044a9.933 9.933 0 00.807.592c.054.036.112.079.169.112v-.003zm5.076 0a8.068 8.068 0 11.679-16.099c.224.019.434.048.667.087l.325.054a8.067 8.067 0 01-1.671 15.957v.001z" fill="#232020"/><path d="M36.067 30.382l-4.1 5.9-2.9-2.377a.733.733 0 00-.252-.135c-.092-.028-.189-.037-.285-.028a.733.733 0 00-.63.517.734.734 0 00.237.78l3.51 2.88a.735.735 0 001.065-.147l4.555-6.552a.734.734 0 00-1.2-.838z" fill="#232020"/></symbol><symbol id="edit-close"><path stroke="#7E2E84" d="M.5.5h43v43H.5z"/><path d="M34 13.216L32.784 12 23 21.784 13.216 12 12 13.216 21.784 23 12 32.784 13.216 34 23 24.216 32.784 34 34 32.784 24.216 23 34 13.216z" fill="#7E2E84"/></symbol><symbol id="edit"><path d="M31.577 12.424a4.853 4.853 0 00-6.868 0L12.117 25.012a.63.63 0 00-.178.36l-.933 6.91a.627.627 0 00.178.53.64.64 0 00.445.189.512.512 0 00.084 0l4.163-.563a.639.639 0 00-.168-1.266l-3.338.45.652-4.82 5.073 5.074a.62.62 0 00.89 0l12.592-12.584a4.85 4.85 0 000-6.868zm-6.625 1.548l2.114 2.114-11.49 11.486-2.114-2.11 11.49-11.49zm-6.408 16.567l-2.068-2.067 11.49-11.49 2.067 2.067-11.49 11.49zm12.372-12.4l-5.06-5.054a3.593 3.593 0 015.059 5.058v-.004z" fill="#7E2E84"/><path stroke="#7E2E84" d="M.5.5h43v43H.5z"/></symbol><symbol id="en" viewBox="0 0 512 512"><circle cx="256" cy="256" r="256" fill="#f0f0f0"/><g fill="#0052b4"><path d="M52.92 100.142c-20.109 26.163-35.272 56.318-44.101 89.077h133.178L52.92 100.142zM503.181 189.219c-8.829-32.758-23.993-62.913-44.101-89.076l-89.075 89.076h133.176zM8.819 322.784c8.83 32.758 23.993 62.913 44.101 89.075l89.074-89.075H8.819zM411.858 52.921c-26.163-20.109-56.317-35.272-89.076-44.102v133.177l89.076-89.075zM100.142 459.079c26.163 20.109 56.318 35.272 89.076 44.102V370.005l-89.076 89.074zM189.217 8.819c-32.758 8.83-62.913 23.993-89.075 44.101l89.075 89.075V8.819zM322.783 503.181c32.758-8.83 62.913-23.993 89.075-44.101l-89.075-89.075v133.176zM370.005 322.784l89.075 89.076c20.108-26.162 35.272-56.318 44.101-89.076H370.005z"/></g><g fill="#d80027"><path d="M509.833 222.609H289.392V2.167A258.556 258.556 0 00256 0c-11.319 0-22.461.744-33.391 2.167v220.441H2.167A258.556 258.556 0 000 256c0 11.319.744 22.461 2.167 33.391h220.441v220.442a258.35 258.35 0 0066.783 0V289.392h220.442A258.533 258.533 0 00512 256c0-11.317-.744-22.461-2.167-33.391z"/><path d="M322.783 322.784L437.019 437.02a256.636 256.636 0 0015.048-16.435l-97.802-97.802h-31.482v.001zM189.217 322.784h-.002L74.98 437.019a256.636 256.636 0 0016.435 15.048l97.802-97.804v-31.479zM189.217 189.219v-.002L74.981 74.98a256.636 256.636 0 00-15.048 16.435l97.803 97.803h31.481zM322.783 189.219L437.02 74.981a256.328 256.328 0 00-16.435-15.047l-97.802 97.803v31.482z"/></g></symbol><symbol id="fb"><path d="M6.875 7.626v-2.75c0-.759.616-1.375 1.375-1.375h1.375V.064h-2.75A4.125 4.125 0 002.75 4.189v3.437H0v3.438h2.75v11h4.125v-11h2.75L11 7.626H6.875z"/></symbol><symbol id="flag_rf"><path fill="#F0E9F0" d="M0 0h18v4H0z"/><path fill="#265DA7" d="M0 4h18v4H0z"/><path fill="#CF3A3A" d="M0 8h18v4H0z"/></symbol><symbol id="france" viewBox="0 0 512 512"><circle cx="256" cy="256" r="256" fill="#f0f0f0"/><path d="M512 256c0-110.071-69.472-203.906-166.957-240.077v480.155C442.528 459.906 512 366.071 512 256z" fill="#d80027"/><path d="M0 256c0 110.071 69.473 203.906 166.957 240.077V15.923C69.473 52.094 0 145.929 0 256z" fill="#0052b4"/></symbol><symbol id="ge" viewBox="0 0 512 512"><path d="M15.923 345.043C52.094 442.527 145.929 512 256 512s203.906-69.473 240.077-166.957L256 322.783l-240.077 22.26z" fill="#ffda44"/><path d="M256 0C145.929 0 52.094 69.472 15.923 166.957L256 189.217l240.077-22.261C459.906 69.472 366.071 0 256 0z"/><path d="M15.923 166.957C5.633 194.69 0 224.686 0 256s5.633 61.31 15.923 89.043h480.155C506.368 317.31 512 287.314 512 256s-5.632-61.31-15.923-89.043H15.923z" fill="#d80027"/></symbol><symbol id="insta" viewBox="0 0 54 54"><path fill="none" d="M-.2.1h53.8v53.4H-.2z"/><path d="M48.1 26.3c0 4.3 0 7.2-.1 8.8-.2 3.9-1.3 6.9-3.5 9s-5.1 3.3-9 3.5c-1.6.1-4.6.1-8.8.1-4.3 0-7.2 0-8.8-.1-3.9-.2-6.9-1.3-9-3.5-2.1-2.1-3.3-5.1-3.5-9-.1-1.6-.1-4.6-.1-8.8s0-7.2.1-8.8c.2-3.9 1.3-6.9 3.5-9C11 6.4 14 5.2 17.9 5c1.6-.1 4.6-.1 8.8-.1 4.3 0 7.2 0 8.8.1 3.9.2 6.9 1.3 9 3.5s3.3 5.1 3.5 9c0 1.6.1 4.5.1 8.8zM28.8 8.7h-7.1c-.7 0-1.6 0-2.7.1-1.1 0-2.1.1-2.9.3-.8.1-1.5.3-2 .5-.9.4-1.7.9-2.5 1.6-.7.7-1.2 1.5-1.6 2.5-.2.5-.4 1.2-.5 2s-.2 1.7-.3 2.9c0 1.1-.1 2-.1 2.7v10c0 .7 0 1.6.1 2.7 0 1.1.1 2.1.3 2.9s.3 1.5.5 2c.4.9.9 1.7 1.6 2.5.7.7 1.5 1.2 2.5 1.6.5.2 1.2.4 2 .5.8.1 1.7.2 2.9.3s2 .1 2.7.1h10c.7 0 1.6 0 2.7-.1 1.1 0 2.1-.1 2.9-.3.8-.1 1.5-.3 2-.5.9-.4 1.7-.9 2.5-1.6.7-.7 1.2-1.5 1.6-2.5.2-.5.4-1.2.5-2 .1-.8.2-1.7.3-2.9 0-1.1.1-2 .1-2.7v-2.9-2.1-2.1-2.9c0-.7 0-1.6-.1-2.7 0-1.1-.1-2.1-.3-2.9-.1-.8-.3-1.5-.5-2-.4-.9-.9-1.7-1.6-2.5-.7-.7-1.5-1.2-2.5-1.6-.5-.2-1.2-.4-2-.5-.8-.1-1.7-.2-2.9-.3-1.1 0-2-.1-2.7-.1h-2.9zm5.6 9.8c2.1 2.1 3.2 4.7 3.2 7.8s-1.1 5.6-3.2 7.8c-2.1 2.1-4.7 3.2-7.8 3.2-3.1 0-5.6-1.1-7.8-3.2-2.1-2.1-3.2-4.7-3.2-7.8s1.1-5.6 3.2-7.8c2.1-2.1 4.7-3.2 7.8-3.2 3.1 0 5.7 1 7.8 3.2zm-2.7 12.8c1.4-1.4 2.1-3.1 2.1-5s-.7-3.7-2.1-5.1c-1.4-1.4-3.1-2.1-5.1-2.1-2 0-3.7.7-5.1 2.1s-2.1 3.1-2.1 5.1.7 3.7 2.1 5c1.4 1.4 3.1 2.1 5.1 2.1 2 0 3.7-.7 5.1-2.1zM39.9 13c.5.5.8 1.1.8 1.8s-.3 1.3-.8 1.8-1.1.8-1.8.8-1.3-.3-1.8-.8-.8-1.1-.8-1.8.3-1.3.8-1.8 1.1-.8 1.8-.8 1.3.3 1.8.8z"/></symbol><symbol id="italy" viewBox="0 0 512 512"><circle cx="256" cy="256" r="256" fill="#f0f0f0"/><path d="M512 256c0-110.071-69.472-203.906-166.957-240.077v480.155C442.528 459.906 512 366.071 512 256z" fill="#d80027"/><path d="M0 256c0 110.071 69.472 203.906 166.957 240.077V15.923C69.472 52.094 0 145.929 0 256z" fill="#6da544"/></symbol><symbol id="japan" viewBox="0 0 512 512"><circle cx="256" cy="256" r="256" fill="#f0f0f0"/><circle cx="256" cy="256" r="111.304" fill="#d80027"/></symbol><symbol id="logo-top" viewBox="0 0 40 40" preserveAspectRatio="xMidYMid"><path d="M0 .031l40-.032v39.97l-40 .03z"/><path d="M12.533 60.999s4.493-27.468-7.533-30-21.871-12.793-19.767-29.654c3.136-25.12 29.756-25.443 38.999-18.474 9.243 6.972 12.015 15.607 8.091 28.288C26.9 28.678 6.036 26.855 0 17.999-6.036 9.143-1.755-8.826 13.444-7.699c8.228.61 10.788 5.926 10.788 10.776 0 6.583-3.382 10.585-8.286 11.904C11.041 16.3 5.178 13.281 5 9c-.179-4.283 2.344-5.909 5-6 2.656-.092 4.908.886 5 3.999.091 3.114-4 3-4 3" fill="none" stroke="#fff" stroke-width="2"/><path d="M36.693 69.999s-2.935-15.524 3.454-16.263c6.39-.739 13.961-7.221 12.715-16.474-1.857-13.787-17.623-13.964-23.097-10.138-5.474 3.826-7.04 8.543-4.792 15.524 2.649 8.225 15.592 7.816 19.167 2.957 3.575-4.859 1.016-13.925-7.986-13.306-4.873.334-6.389 3.252-6.389 5.914 0 3.612 2.003 5.808 4.907 6.532 2.905.724 5.728-.324 6.064-2.806.335-2.482-1.245-4.056-3.032-4.677-1.788-.62-2.92.216-3.032 1.871-.111 1.655 2.021 2.806 2.021 2.806" fill="none" stroke="#fff" stroke-width="2"/></symbol><symbol id="logo"><path d="M100.533 59.313a10.738 10.738 0 00-.568-1.898 1.205 1.205 0 00-2.23-.097 4.156 4.156 0 000 4.032 1.247 1.247 0 002.299-.138c.219-.618.386-1.253.499-1.899zm-4.253 9.034a2.16 2.16 0 00.942 1.538 3.863 3.863 0 003.353.36 2.274 2.274 0 001.607-1.385 1.22 1.22 0 00-.928-1.802 11.728 11.728 0 00-3.547-.124c-.374 0-.749 0-.97.402-.222.401-.305.65-.457.983v.028zm.872 3.422c-.374-.097-.748-.166-1.122-.29a2.95 2.95 0 01-1.94-1.51 1.525 1.525 0 01.25-1.566l1.566-1.76a11.573 11.573 0 01-1.109-.928 2.023 2.023 0 01-.623-1.51c.023-.292.13-.57.304-.804.36-.458.804-.873 1.137-1.233a8.505 8.505 0 01-.929-1.594 3.31 3.31 0 011.51-4.156 5.042 5.042 0 013.02-.776c.829.019 1.652.135 2.453.346.72.19 1.486.09 2.134-.277.319-.152.651-.263.97-.388l.124.097-.512 1.026c0 .124-.153.235-.222.36a.556.556 0 01-.582.374 4.873 4.873 0 00-.97.083c.241.596.404 1.22.485 1.857a3.208 3.208 0 01-1.607 3.09 5.364 5.364 0 01-4.641.387h-.444a1.51 1.51 0 00-.25.804 1.053 1.053 0 001.123.831c.762 0 1.524-.097 2.3-.07.998 0 2.009.07 3.007.167a2.287 2.287 0 011.995 1.968 3.25 3.25 0 01-.97 3.048 7.191 7.191 0 01-4.461 2.286s-.07 0-.111.097l-1.885.041zM4.101 61.6v3.186a.471.471 0 00.402.54 2.924 2.924 0 003.159-1.163 4.71 4.71 0 00.623-4.157 3.034 3.034 0 00-3.034-2.3c-.79 0-1.15.388-1.15 1.164v2.771-.041zM.014 56.75a.61.61 0 01.512-.388l3.118-.47c.124-.014.25-.014.374 0v1.288l1.51-.845a3.366 3.366 0 013.935.415 4.642 4.642 0 011.857 2.91 5.971 5.971 0 01-2.647 6.4c-.73.39-1.522.653-2.341.777a3.186 3.186 0 01-1.663-.374l-.665-.305c0 .402.097.706.097.997v2.494a.5.5 0 00.402.555c.499.166.997.374 1.482.582.111 0 .25.221.222.304-.028.083 0 .485-.36.457-.36-.027-.998 0-1.497 0H1.22v-.54-12.636a.817.817 0 00-.458-.845A8.39 8.39 0 010 57.083l.014-.333zM152.351 55.933a1.523 1.523 0 001.579-1.677 1.612 1.612 0 00-.416-1.241 1.624 1.624 0 00-1.853-.391 1.624 1.624 0 00-.959 1.632 1.585 1.585 0 00.456 1.197 1.58 1.58 0 001.193.466v.014zm2.189-1.067a2.633 2.633 0 01-1.316 1.386 2.19 2.19 0 01-2.231-.264 2.097 2.097 0 01-.873-2.189 2.025 2.025 0 011.691-1.745 2.101 2.101 0 012.311.79c.169.236.288.505.349.789l.069 1.233z" fill="#1D1D1B"/><path d="M100.949 4.89a4.5 4.5 0 00-.693-2.77 1.526 1.526 0 00-2.383 0 5.181 5.181 0 00-.07 5.279 1.524 1.524 0 002.605-.139 4.34 4.34 0 00.541-2.355V4.89zm-1.704 8.924H97.79a1.815 1.815 0 00-1.76 1.704 2.092 2.092 0 001.025 1.829 4.669 4.669 0 004.587.318 2.373 2.373 0 001.482-1.593 1.488 1.488 0 00-.071-1.333 1.496 1.496 0 00-1.107-.745c-.886-.139-1.787-.167-2.688-.236l-.013.056zM106.186.069c-.222.485-.457.956-.665 1.386a1.027 1.027 0 01-1.219.72 3.86 3.86 0 00-.942.111c.035.106.081.209.138.305a4.145 4.145 0 01.42 3.212 4.16 4.16 0 01-2.013 2.538 6.541 6.541 0 01-5.722.138c-.804.86-.444 1.594.36 2.106.133.068.28.102.43.097 1.15 0 2.313-.097 3.463-.083a36.69 36.69 0 013.131.18 3.02 3.02 0 012.342 2.619 4.703 4.703 0 01-1.871 3.99 8.976 8.976 0 01-4.516 2.092 6.927 6.927 0 01-5.39-1.025 1.912 1.912 0 01-.305-3.062l1.58-1.524.305-.36a3.92 3.92 0 01-2.3-2.771c-.153-.61.235-.942.54-1.386.305-.443.873-.942 1.316-1.385a7.8 7.8 0 01-.776-.845 4.046 4.046 0 01.97-5.543 6.36 6.36 0 014.891-1.122c1.053.153 2.106.36 3.159.513.181-.005.358-.058.513-.153l1.648-.65.167-.167.346.07zM87.466 38.947a5.547 5.547 0 01-.332 1.524c-.27.346-.616.626-1.012.817a9.074 9.074 0 01-3.948 1.261 8.951 8.951 0 01-4.06-.36 4.157 4.157 0 01-2.77-3.963V13.176h-6.928V32.45c0 1.787-.25 3.56-.416 5.334 0 .512-.166 1.011-.25 1.524a2.287 2.287 0 01-1.385 1.773 13.62 13.62 0 01-4.156 1.275c-1.012.152-2.037.236-3.063.333a.594.594 0 01-.429-.167c-.236-.318-.43-.679-.665-1.066.998-.929 1.981-1.843 2.951-2.772.496-.401.959-.841 1.386-1.316.241-.363.385-.783.415-1.219.157-1.26.245-2.527.264-3.796V13.204a17.568 17.568 0 00-8.313 1.385 3.417 3.417 0 00-.14-.485c-.4-.9.209-1.385.777-1.842a12.068 12.068 0 015.957-2.577c.917-.15 1.843-.233 2.772-.25H82.2a17.873 17.873 0 003.935-.47c.832-.18 1.663-.292 2.494-.416.264 0 .457.083.402.401a12.11 12.11 0 01-1.884 5.307 6.927 6.927 0 01-.72.707c-.846-.485-1.663-.943-2.48-1.386a2.438 2.438 0 00-1.386-.346h-1.164v23.401a1.26 1.26 0 00.776 1.233 9.245 9.245 0 002.979.873c.734.125 1.468.194 2.286.29"/><path d="M26.642 65.022a2.59 2.59 0 001.954.166 3.34 3.34 0 002.341-2.688 4.046 4.046 0 00-1.385-4.434 2.328 2.328 0 00-2.771-.166.415.415 0 00-.166.291v6.845l.027-.014zm-.027-9.325v1.261l1.953-1.011a2.771 2.771 0 012.328 0 4.559 4.559 0 013.006 3.63 5.848 5.848 0 01-1.648 5.542 4.6 4.6 0 01-5.542.97v3.131a.762.762 0 00.61.9c.526.153 1.024.375 1.523.555-.07.734-.07.734-.706.734h-4.31v-.527-12.76a.748.748 0 00-.429-.748c-.18-.111-.374-.208-.54-.333-.166-.124-.25-.263-.222-.346.028-.083.208-.402.36-.444a39.18 39.18 0 012.217-.429c.471-.083.942-.11 1.386-.166M141.338 61.475v3.131a.527.527 0 00.429.582 2.773 2.773 0 003.201-1.15 4.558 4.558 0 00.18-5.112 2.606 2.606 0 00-3.45-1.109.556.556 0 00-.346.596v3.062h-.014zm.014-5.791v1.385c.485-.277.97-.54 1.385-.831a3.355 3.355 0 013.769.263 4.7 4.7 0 012.175 4.157 6.115 6.115 0 01-.693 3.172 5.546 5.546 0 01-3.644 2.771 3.38 3.38 0 01-2.59-.304l-.388-.18v3.837l2.147.832c0 .235-.111.457-.166.678h-4.836v-.65-12.595a.846.846 0 00-.484-.887 2.317 2.317 0 01-.499-.318c-.111-.097-.277-.25-.264-.347.014-.097.111-.47.416-.512l3.076-.458.513-.069M135.711 66.573a2.381 2.381 0 01-2.771-1.385 13.49 13.49 0 01-1.385 1.067 3.436 3.436 0 01-4.628-.956 4.799 4.799 0 01-.499-1.926c-.069-1.122 0-2.258 0-3.395 0-.665 0-1.385.084-1.98a.46.46 0 00-.305-.54 5.127 5.127 0 01-.665-.375c-.125-.07-.319-.25-.291-.291.068-.206.199-.385.374-.513.291-.098.594-.154.9-.166l2.938-.263a3.643 3.643 0 000 .443c0 2.286-.097 4.572-.083 6.928a1.635 1.635 0 002.286 1.635c.352-.11.681-.283.969-.513a.735.735 0 00.264-.527v-5.708c0-.457-.305-.54-.582-.707-.277-.166-.485-.208-.721-.332-.235-.125-.249-.194-.235-.236.014-.041.194-.485.332-.512 1.303-.139 2.605-.25 3.907-.36a.528.528 0 01.208 0l-.097 10.612zM117.075 61.184c0 .374.083.97.194 1.538.125.97.568 1.872 1.261 2.563a1.578 1.578 0 001.718.264 2.277 2.277 0 001.067-1.386 8.648 8.648 0 00.332-4.156 6.203 6.203 0 00-.845-2.494 1.62 1.62 0 00-2.882 0 6.723 6.723 0 00-.845 3.616v.055zm7.814-.125a5.537 5.537 0 01-1.326 4.449 5.542 5.542 0 01-9.619-4.615 5.404 5.404 0 015.542-5.25 5.128 5.128 0 015.445 5.416M63.58 61.115c-.526.235-1.108.457-1.648.72a2.01 2.01 0 00-.748.54 1.69 1.69 0 001.053 2.647c.526.11 1.385-.319 1.385-.735v-3.172h-.041zm-3.227-2.01a8.831 8.831 0 01-1.663-.152c-.222 0-.374-.443-.54-.693a1.388 1.388 0 01-.111-.304c.415-.291.831-.624 1.274-.873a9.825 9.825 0 013.506-1.386 3.368 3.368 0 013.505 2.55c.067.281.1.57.097.859v7.482a2.397 2.397 0 01-2.632-1.053c-.645.384-1.311.73-1.995 1.039a2.91 2.91 0 01-3.755-2.771 2.064 2.064 0 011.58-2.245c1.218-.485 2.452-.887 3.699-1.288a.498.498 0 00.401-.582 2.772 2.772 0 00-.692-2.134 2.037 2.037 0 00-2.356-.208c-.097 0-.124.263-.152.416-.07.415-.111.845-.166 1.385M15.476 60.034h3.338a.416.416 0 00.291-.277 3.797 3.797 0 00-.443-2.397 1.193 1.193 0 00-1.829-.374 4.157 4.157 0 00-1.385 3.062l.027-.014zm-.028 1.122a3.768 3.768 0 001.593 3.589 2.534 2.534 0 002.12.43c.302-.14.582-.322.831-.541l1.497-1.012a.735.735 0 010 .97 9.285 9.285 0 01-1.386 1.524 2.853 2.853 0 01-1.122.402 5.79 5.79 0 01-4.06-.402 4.446 4.446 0 01-2.424-3.366 6.346 6.346 0 01.457-4.074 5.056 5.056 0 013.408-2.77 4.489 4.489 0 014.268.941 3.603 3.603 0 011.163 2.397c.055.25.083.506.084.762 0 .693-.25.9-1.012.998-.762.097-1.455.152-2.189.166h-3.297M70.882 60.034h3.325a.47.47 0 00.32-.305 3.782 3.782 0 00-.416-2.327 1.233 1.233 0 00-1.913-.374 4.6 4.6 0 00-1.316 3.02v-.014zm.084 1.122a3.643 3.643 0 002.383 3.977 2.466 2.466 0 002.369-.651c.388-.32.831-.582 1.247-.86a.637.637 0 01.083.846 3.851 3.851 0 01-3.325 2.203 5.888 5.888 0 01-3.34-.624 4.504 4.504 0 01-2.355-3.45 6.706 6.706 0 01.18-3.145 5.099 5.099 0 014.018-3.644 4.296 4.296 0 014.157 1.206c.569.61.911 1.398.97 2.23a1.726 1.726 0 000 .264c.194.817-.125 1.385-.956 1.454-.832.07-1.802.153-2.702.18-.9.028-1.829 0-2.771 0M41.83 60.006v-1.385a2.175 2.175 0 00-.68-1.552c-.83-.693-1.579-.277-2.147.499a4.559 4.559 0 00-.748 2.452l3.574-.014zm-3.589 1.136a3.644 3.644 0 002.41 3.963 2.037 2.037 0 002.024-.388 15.97 15.97 0 011.62-1.108.9.9 0 01-.096 1.108c-.471.651-.873 1.386-1.704 1.593a7.93 7.93 0 01-1.857.347 4.739 4.739 0 01-5.085-3.506 5.86 5.86 0 011.455-6.068 5.03 5.03 0 015.694-.9 3.687 3.687 0 011.995 2.77c.042.239.07.48.084.72 0 1.11-.139 1.067-1.053 1.22a19.25 19.25 0 01-3.09.222h-2.452M51.015 66.352h-4.31v-2.397l-.082-11.666c0-.263-.07-.43-.319-.513a2.177 2.177 0 01-.582-.249c-.152-.097-.374-.263-.36-.374.014-.11.083-.471.416-.554a18.161 18.161 0 013.81-.513V61.683c0 1.011 0 2.023.083 3.034a.497.497 0 00.222.347c.263.152.554.249.845.388.554.249.554.249.346.9M111.465 66.366h-4.974v-.471-7.634a.567.567 0 00-.375-.624 5.337 5.337 0 01-.831-.457c0-.624.471-.734.901-.831.873-.208 1.745-.388 2.604-.61.25-.07.305 0 .333.208 0 .554.139 1.108.208 1.704a4.612 4.612 0 011.912-1.704 2.23 2.23 0 012.092 0 .406.406 0 01.252.371.41.41 0 01-.03.155c-.291.86-.582 1.732-.915 2.563-.166.444-.443.43-.679 0a9.866 9.866 0 01-.637-1.108c-.194-.374-.43-.43-.762-.25a1.912 1.912 0 00-1.205 1.885v4.96c0 .319.083.443.415.513.333.069.873.277 1.316.415.444.139.61.194.361.846M85.903 56.03h2.48c-.208.319-.305.693-.527.803a4.157 4.157 0 00-1.842 2.564c-.79 1.94-1.524 3.92-2.356 5.846a6.163 6.163 0 01-1.191 1.386c-.097.11-.305.11-.485.166l-2.3-5.68c-.554-1.386-1.123-2.771-1.69-4.157a2.119 2.119 0 01-.098-.499c0-.36.097-.512.485-.498h3.908l-.735 1.219a.54.54 0 00-.083.374c.651 1.801 1.303 3.602 2.01 5.542l2.424-7.135M57.346 65.7c0 .209-.097.43-.153.652h-4.322v-.485-7.662a.72.72 0 00-.513-.817 1.662 1.662 0 01-.443-.222c-.111-.097-.264-.277-.236-.388.028-.11.194-.374.333-.402 1.136-.221 2.286-.415 3.422-.623l.319-.083v8.922a.471.471 0 00.318.527c.416.166.832.374 1.275.582zM55.878 52.414c-.139.194-.263.443-.43.637-.166.194-.665.665-.983.997a.443.443 0 01-.72 0c-.374-.412-.72-.847-1.04-1.302a.581.581 0 010-.54c.374-.457.79-.9 1.22-1.386a.444.444 0 01.706 0l1.122 1.386s0 .124.083.25M151.976 54.187l.707-.263v-.18l-.707-.222v.665zm-.568-1.04h1.289c.277 0 .526.167.526.458-.025.267-.09.529-.194.776l.333.956c-.43.139-.693.097-.748-.388a.448.448 0 00-.423-.432.445.445 0 00-.215.044v.818h-.499l-.069-2.231z" fill="#1D1D1B"/></symbol><symbol id="logo_bottom"><path d="M46.462 4.89a4.503 4.503 0 00-.692-2.77 1.524 1.524 0 00-2.383 0 5.181 5.181 0 00-.07 5.279 1.523 1.523 0 002.605-.139c.4-.718.587-1.535.54-2.355V4.89zm-1.704 8.924h-1.455a1.815 1.815 0 00-1.76 1.704 2.092 2.092 0 001.026 1.829 4.669 4.669 0 004.586.318 2.37 2.37 0 001.483-1.593 1.496 1.496 0 00-1.178-2.078c-.887-.139-1.787-.167-2.688-.236l-.014.056zM51.7.069c-.222.485-.458.956-.665 1.386a1.025 1.025 0 01-1.22.72 3.866 3.866 0 00-.942.111c.035.106.082.209.139.305a4.157 4.157 0 01-1.593 5.75 6.54 6.54 0 01-5.723.138c-.803.86-.443 1.594.36 2.106.133.068.281.102.43.097 1.15 0 2.314-.097 3.464-.083a36.7 36.7 0 013.131.18 3.02 3.02 0 012.342 2.619 4.698 4.698 0 01-1.87 3.99 8.978 8.978 0 01-4.518 2.092 6.927 6.927 0 01-5.39-1.025 1.912 1.912 0 01-.304-3.062l1.58-1.524.304-.36a3.922 3.922 0 01-2.3-2.771c-.152-.61.236-.942.54-1.386.305-.443.873-.942 1.317-1.385a7.789 7.789 0 01-.776-.845 4.046 4.046 0 01.97-5.543 6.359 6.359 0 014.89-1.122c1.054.153 2.107.36 3.16.513a1.04 1.04 0 00.512-.153l1.65-.65.165-.167.347.07zM32.98 38.947a5.54 5.54 0 01-.332 1.524c-.27.346-.616.626-1.012.817a9.075 9.075 0 01-3.949 1.26 8.951 8.951 0 01-4.06-.36 4.157 4.157 0 01-2.77-3.962V13.176h-6.928V32.45c0 1.787-.25 3.56-.415 5.334 0 .512-.167 1.011-.25 1.524a2.286 2.286 0 01-1.385 1.773 13.62 13.62 0 01-4.157 1.275c-1.011.152-2.037.236-3.062.333a.594.594 0 01-.43-.167c-.235-.319-.429-.679-.664-1.067.997-.928 1.981-1.842 2.95-2.77.496-.402.96-.843 1.386-1.317.242-.363.385-.784.416-1.22a34.71 34.71 0 00.263-3.795V13.204a17.57 17.57 0 00-8.313 1.385 3.422 3.422 0 00-.138-.485c-.402-.9.207-1.385.775-1.842a12.068 12.068 0 015.958-2.577c.917-.15 1.843-.233 2.771-.25h18.081a17.874 17.874 0 003.935-.47c.831-.181 1.663-.292 2.494-.417.263 0 .457.084.402.402a12.11 12.11 0 01-1.885 5.307 6.936 6.936 0 01-.72.706c-.845-.484-1.663-.942-2.48-1.385a2.44 2.44 0 00-1.386-.346h-1.163v23.401a1.262 1.262 0 00.775 1.233 9.241 9.241 0 002.98.873c.734.125 1.468.194 2.285.29" fill="#9D1D96"/></symbol><symbol id="mail"><path d="M1.055.89h9.89C11.527.89 12 1.361 12 1.943v6.112c0 .582-.473 1.055-1.055 1.055h-9.89A1.056 1.056 0 010 8.056V1.944C0 1.362.473.889 1.055.889zm.137.702l.141.118 4.249 3.537a.654.654 0 00.836 0l4.249-3.537.14-.118H1.193zm10.105.508L7.835 4.982l3.462 2.304V2.1zM1.055 8.408h9.89c.17 0 .312-.121.345-.282L7.272 5.452l-.404.336a1.354 1.354 0 01-1.736 0l-.404-.336L.71 8.126c.033.16.175.282.345.282zM.703 7.286l3.462-2.304L.703 2.1v5.186z" fill="#7E2E84"/></symbol><symbol id="menu"><path stroke="#7E2E7A" d="M.354.646l4 4M7.646.646l-4 4"/></symbol><symbol id="menu1"><path stroke="#7E2E7A" stroke-width="2" d="M0 1h30M0 9h22M0 17h15"/></symbol><symbol id="microphone"><path d="M18.51 5.2l-1.612-.646V1.11C16.898.497 16.401 0 15.791 0a1.11 1.11 0 00-1.101.997c-1.708 2.845-5.85 3.068-7.089 3.068h-3.69c-.916 0-1.68.674-1.82 1.554l-1.22.305c-.4.1-.648.38-.648.728V8.87c0 .348.248.627.648.728l1.22.305c.14.88.904 1.553 1.82 1.553h.37v4.383c0 .64.496 1.161 1.107 1.161h1.475c.61 0 1.107-.521 1.107-1.162v-4.375c1.546.05 5.155.455 6.72 3.062.056.559.529.997 1.101.997.61 0 1.107-.498 1.107-1.109v-3.446l1.613-.646c.164-.066.6-.24.6-.712V5.913c0-.472-.436-.647-.6-.713zM.96 8.846v-2.17a.319.319 0 01.09-.035l1.017-.255v2.75L1.05 8.88a.318.318 0 01-.09-.035zm5.903 7.415H5.388c-.2 0-.37-.194-.37-.422v-4.383h2.214v4.382c0 .23-.169.423-.369.423zm4.864-4.871c-1.422-.509-2.856-.641-3.757-.667V9.424a.37.37 0 10-.738 0v1.293h-3.32c-.61 0-1.107-.497-1.107-1.108V5.913c0-.611.497-1.109 1.107-1.109h3.32v1.294a.37.37 0 10.738 0v-1.3c.901-.025 2.335-.158 3.757-.666 1.236-.442 2.226-1.076 2.957-1.89V13.28c-.731-.815-1.721-1.448-2.957-1.89zm4.433 3.023a.37.37 0 01-.738 0V1.109a.37.37 0 01.738 0v13.304zm2.214-4.842a.953.953 0 01-.137.064l-1.339.537V5.35l1.339.537c.075.03.115.05.137.064v3.62z" fill="#7E2E84"/></symbol><symbol id="phone"><path d="M16.024 11.788c-.39-.405-.86-.622-1.358-.622-.494 0-.968.213-1.373.618l-1.27 1.265c-.104-.056-.208-.108-.309-.16-.145-.072-.281-.14-.398-.213-1.188-.755-2.269-1.74-3.305-3.012-.502-.635-.84-1.17-1.084-1.711.329-.302.634-.615.931-.916.113-.112.225-.229.338-.341.843-.844.843-1.936 0-2.78L7.099 2.82c-.124-.125-.253-.253-.373-.382a18.953 18.953 0 00-.755-.747c-.39-.385-.856-.59-1.346-.59-.49 0-.964.205-1.365.59l-.008.008-1.366 1.378a2.938 2.938 0 00-.871 1.867c-.097 1.173.249 2.266.514 2.98.65 1.756 1.622 3.382 3.072 5.125a18.9 18.9 0 006.294 4.928c.924.438 2.157.956 3.534 1.045.085.004.173.008.253.008.928 0 1.707-.334 2.318-.996.004-.008.012-.012.016-.02.209-.253.45-.482.703-.727.172-.165.349-.338.522-.518.397-.414.606-.896.606-1.39 0-.498-.213-.976-.618-1.378l-2.205-2.213zm1.437 4.23c-.004 0-.004.003 0 0-.156.168-.317.32-.49.49-.26.248-.526.51-.775.803-.405.433-.883.638-1.51.638-.06 0-.124 0-.185-.004-1.192-.076-2.3-.542-3.132-.94a17.84 17.84 0 01-5.928-4.642c-1.37-1.651-2.286-3.177-2.892-4.816-.374-1-.51-1.78-.45-2.514.04-.47.22-.86.554-1.193l1.37-1.37c.197-.184.405-.285.61-.285.253 0 .458.153.587.281l.012.012c.245.23.478.466.723.72.124.128.253.256.381.389l1.097 1.096c.425.426.425.82 0 1.245-.117.117-.23.233-.346.346-.337.345-.658.667-1.008.98-.008.008-.016.012-.02.02-.345.345-.281.683-.209.912l.012.036c.285.69.687 1.341 1.298 2.116l.004.004c1.108 1.366 2.277 2.43 3.566 3.246.165.104.333.188.494.269.145.072.281.14.398.213.016.008.032.02.048.028a.87.87 0 00.398.1c.333 0 .542-.209.61-.277l1.374-1.374c.136-.136.353-.3.606-.3.25 0 .454.156.578.292l.008.008 2.213 2.213c.414.41.414.832.004 1.257z"/><path d="M11.269 4.527a5.093 5.093 0 012.77 1.437 5.12 5.12 0 011.439 2.772c.044.265.273.45.534.45.032 0 .06-.005.092-.009a.543.543 0 00.446-.626 6.194 6.194 0 00-1.739-3.354 6.195 6.195 0 00-3.354-1.739.545.545 0 00-.626.442.536.536 0 00.438.627zM19.992 8.394a10.19 10.19 0 00-2.863-5.522A10.191 10.191 0 0011.606.008a.54.54 0 10-.176 1.069 9.126 9.126 0 014.936 2.558 9.099 9.099 0 012.558 4.936c.044.265.273.45.534.45.032 0 .06-.004.093-.008a.532.532 0 00.441-.619z" fill="#7E2E7A"/></symbol><symbol id="plus"><path d="M11.201 13.021H7.18a.67.67 0 000 1.34h4.021a.67.67 0 000-1.34zM9.497 11.547l2.68-2.01a.67.67 0 00-.804-1.073h.001L9.766 9.67V4.31a.67.67 0 00-1.34 0V9.67L6.816 8.464a.67.67 0 00-.805 1.071v.001l2.682 2.01a.729.729 0 00.803 0z" fill="#272C3E"/><circle cx="9" cy="9" r="8.426" stroke="#272C3E" stroke-width="1.149"/></symbol><symbol id="portugal" viewBox="0 0 512 512"><path d="M0 256c0 110.07 69.472 203.905 166.955 240.076l22.262-240.077-22.262-240.076C69.472 52.095 0 145.929 0 256z" fill="#6da544"/><path d="M512 256C512 114.616 397.384 0 256 0c-31.314 0-61.311 5.633-89.045 15.923v480.154C194.689 506.368 224.686 512 256 512c141.384 0 256-114.616 256-256z" fill="#d80027"/><circle cx="166.957" cy="256" r="89.043" fill="#ffda44"/><path d="M116.87 211.478v55.652c0 27.662 22.424 50.087 50.087 50.087s50.087-22.424 50.087-50.087v-55.652H116.87z" fill="#d80027"/><path d="M166.957 283.826c-9.206 0-16.696-7.49-16.696-16.696v-22.26h33.391v22.261c0 9.205-7.49 16.695-16.695 16.695z" fill="#f0f0f0"/></symbol><symbol id="russia" viewBox="0 0 512 512"><circle cx="256" cy="256" r="256" fill="#f0f0f0"/><path d="M496.077 345.043C506.368 317.31 512 287.314 512 256s-5.632-61.31-15.923-89.043H15.923C5.633 194.69 0 224.686 0 256s5.633 61.31 15.923 89.043L256 367.304l240.077-22.261z" fill="#0052b4"/><path d="M256 512c110.071 0 203.906-69.472 240.077-166.957H15.923C52.094 442.528 145.929 512 256 512z" fill="#d80027"/></symbol><symbol id="search"><path stroke="#fff" stroke-width="1.5" stroke-linecap="round" d="M13.061 13L17 16.939"/><circle cx="7.5" cy="7.5" r="6.75" stroke="#fff" fill="#064965" stroke-width="1.5" stroke-linecap="round"/></symbol><symbol id="search1"><path stroke="#fff" stroke-width="1.5" stroke-linecap="round" d="M13.061 13L17 16.939"/><circle cx="7.5" cy="7.5" r="6.75" stroke="#fff" fill="#064965" stroke-width="1.5" stroke-linecap="round"/></symbol><symbol id="sertificat"><path d="M48.654 16.607H13.348a.909.909 0 100 1.818h35.306a.909.909 0 100-1.818zM48.654 26.504H13.348a.909.909 0 100 1.817h35.306a.909.909 0 100-1.817zM37.079 32.926H24.923a.909.909 0 100 1.818h12.156a.909.909 0 100-1.818zM48.654 21.535H22.319a.909.909 0 100 1.818h26.335a.909.909 0 100-1.818zM18.09 21.535h-4.742a.909.909 0 100 1.818h4.742a.909.909 0 100-1.818z" fill="#000"/><path d="M57.308 15.07a1.12 1.12 0 00-.79-.321 3.429 3.429 0 01-3.434-3.28 1.117 1.117 0 00-1.118-1.066H9.818c-.6 0-1.092.469-1.119 1.067a3.457 3.457 0 01-3.275 3.275 1.117 1.117 0 00-1.067 1.119v23.495c0 .6.469 1.091 1.067 1.118A3.458 3.458 0 018.7 43.753a1.117 1.117 0 001.119 1.066h26.831a.909.909 0 100-1.818H10.443a5.216 5.216 0 00-4.268-4.268V16.49a5.216 5.216 0 004.268-4.268H51.34a5.243 5.243 0 004.484 4.3v15.436a.909.909 0 101.817 0V15.869c0-.303-.119-.586-.334-.798z" fill="#000"/><path d="M59.477 5.866H2.523A2.526 2.526 0 000 8.39v38.444a2.526 2.526 0 002.523 2.523h38.15l-1.35 2.83a1.078 1.078 0 001.146 1.531l2.514-.404 1.403 2.302a1.078 1.078 0 001.896-.096l2.437-5.107 2.437 5.106a1.079 1.079 0 001.897.098l1.402-2.303 2.515.405c.398.063.795-.097 1.036-.42.24-.323.283-.749.11-1.111l-1.351-2.83h2.712A2.526 2.526 0 0062 46.832V8.39a2.526 2.526 0 00-2.523-2.523zm-14.248 47.64l-.952-1.562a1.075 1.075 0 00-1.093-.504l-1.615.26 1.701-3.565a3.24 3.24 0 002.617.96c.339-.032.679.06.956.257.092.065.187.123.283.177l-1.897 3.976zm3.707-5.39h-.009a1.43 1.43 0 01-.415 0h-.01a1.418 1.418 0 01-.606-.246 3.238 3.238 0 00-2.18-.584 1.42 1.42 0 01-1.425-.823 3.232 3.232 0 00-.419-.675l-.023-.03-.027-.034a3.234 3.234 0 00-1.128-.858 1.42 1.42 0 01-.822-1.424 3.238 3.238 0 00-.584-2.18 1.42 1.42 0 010-1.646c.45-.633.657-1.407.584-2.18a1.42 1.42 0 01.822-1.425 3.238 3.238 0 001.597-1.597c.251-.549.825-.88 1.425-.822a3.238 3.238 0 002.18-.585 1.42 1.42 0 011.645 0c.634.45 1.408.657 2.181.585a1.42 1.42 0 011.425.822c.323.707.89 1.274 1.597 1.597.548.251.88.823.822 1.424a3.238 3.238 0 00.584 2.181 1.42 1.42 0 010 1.645 3.239 3.239 0 00-.584 2.181 1.42 1.42 0 01-.823 1.425 3.235 3.235 0 00-1.128.859l-.023.028-.027.035a3.23 3.23 0 00-.418.674 1.42 1.42 0 01-1.425.823 3.242 3.242 0 00-2.18.584c-.185.13-.392.213-.606.246zm5.318 3.324a1.076 1.076 0 00-1.093.504l-.952 1.561-1.897-3.976c.096-.055.191-.112.283-.177.278-.198.617-.29.956-.257a3.238 3.238 0 002.617-.96l1.7 3.564-1.614-.26zm5.928-4.607a.706.706 0 01-.705.705h-3.58l-.468-.982c.023-.012.047-.025.071-.036a3.24 3.24 0 001.876-3.25 1.42 1.42 0 01.256-.956 3.24 3.24 0 000-3.751 1.42 1.42 0 01-.256-.956 3.24 3.24 0 00-1.876-3.25 1.421 1.421 0 01-.7-.7 3.24 3.24 0 00-3.25-1.875 1.418 1.418 0 01-.955-.256 3.24 3.24 0 00-3.752 0 1.419 1.419 0 01-.956.256 3.24 3.24 0 00-3.249 1.876 1.42 1.42 0 01-.7.7 3.24 3.24 0 00-1.876 3.248 1.42 1.42 0 01-.256.957 3.24 3.24 0 000 3.751c.197.278.288.617.256.957a3.24 3.24 0 001.876 3.248l.071.037-.468.982H2.523a.706.706 0 01-.705-.705V8.39c0-.389.316-.705.705-.705h56.954c.389 0 .705.316.705.705v38.444z" fill="#000"/><path d="M48.653 34.792a5.653 5.653 0 00-5.647 5.647 5.653 5.653 0 005.647 5.647 5.653 5.653 0 005.647-5.647 5.653 5.653 0 00-5.647-5.647zm0 9.476a3.834 3.834 0 01-3.83-3.83 3.834 3.834 0 013.83-3.829 3.834 3.834 0 013.83 3.83 3.834 3.834 0 01-3.83 3.829z" fill="#000"/></symbol><symbol id="south-korea" viewBox="0 0 512 512"><circle cx="256" cy="256" r="256" fill="#f0f0f0"/><path d="M345.043 256c0 22.261-39.866 77.913-89.043 77.913S166.957 278.261 166.957 256c0-49.178 39.866-89.043 89.043-89.043s89.043 39.865 89.043 89.043z" fill="#d80027"/><path d="M345.043 256c0 49.178-39.866 89.043-89.043 89.043S166.957 305.178 166.957 256" fill="#0052b4"/><path d="M350.442 334.705l23.61-23.61 15.741 15.74-23.61 23.61zM311.085 374.06l23.61-23.612 15.741 15.741-23.61 23.611zM397.67 381.917l23.611-23.61 15.74 15.74-23.61 23.61zM358.314 421.278l23.61-23.61 15.741 15.74-23.61 23.611zM374.055 358.313l23.61-23.61 15.741 15.74-23.61 23.61zM334.709 397.667l23.61-23.61 15.741 15.74-23.61 23.611zM397.678 177.29l-62.963-62.963 15.741-15.74 62.962 62.962zM334.713 161.558l-23.61-23.61 15.74-15.74 23.61 23.61zM374.06 200.907l-23.61-23.611 15.74-15.74 23.61 23.61zM381.915 114.336l-23.61-23.611 15.74-15.741 23.61 23.61zM421.283 153.688l-23.611-23.61 15.74-15.741 23.612 23.61zM90.723 358.318l62.962 62.962-15.74 15.74-62.963-62.961zM153.68 374.05l23.611 23.611-15.74 15.74-23.61-23.61zM114.33 334.703l23.611 23.611-15.74 15.741-23.611-23.61zM137.943 311.091l62.962 62.963-15.74 15.74-62.963-62.962zM153.684 90.72L90.72 153.683l-15.74-15.741 62.962-62.963zM177.287 114.325l-62.963 62.963-15.74-15.741 62.962-62.962zM200.912 137.947l-62.962 62.962-15.74-15.74 62.962-62.962z"/></symbol><symbol id="spain" viewBox="0 0 512 512"><path d="M0 256c0 31.314 5.633 61.31 15.923 89.043L256 367.304l240.077-22.261C506.367 317.31 512 287.314 512 256s-5.633-61.31-15.923-89.043L256 144.696 15.923 166.957C5.633 194.69 0 224.686 0 256z" fill="#ffda44"/><g fill="#d80027"><path d="M496.077 166.957C459.906 69.473 366.071 0 256 0S52.094 69.473 15.923 166.957h480.154zM15.923 345.043C52.094 442.527 145.929 512 256 512s203.906-69.473 240.077-166.957H15.923z"/></g></symbol><symbol id="telegram"><path d="M7.063 9.886l-.298 4.188c.426 0 .61-.183.832-.403l1.997-1.909 4.139 3.031c.759.423 1.294.2 1.498-.698l2.717-12.729C18.19.242 17.544-.196 16.804.08L.836 6.193c-1.09.423-1.074 1.03-.186 1.306l4.083 1.27 9.482-5.934c.447-.295.852-.132.518.164l-7.67 6.887z" fill="#fff"/></symbol><symbol id="temp-icon-left-arrow" viewBox="0 0 31.494 31.494"><path d="M10.273 5.01a1.117 1.117 0 011.587 1.57l-8.047 8.047h26.554c.62 0 1.127.492 1.127 1.11 0 .62-.508 1.128-1.127 1.128H3.813l8.047 8.032c.43.444.43 1.16 0 1.587a1.112 1.112 0 01-1.587 0L.32 16.532a1.12 1.12 0 010-1.57l9.953-9.953z" fill="#FFF"/></symbol><symbol id="temp-icon-right-arrow" viewBox="0 0 31.49 31.49"><path d="M21.205 5.007a1.117 1.117 0 00-1.587 1.57l8.047 8.048H1.11c-.618 0-1.11.493-1.11 1.112 0 .62.492 1.127 1.11 1.127h26.555l-8.047 8.032c-.43.444-.43 1.16 0 1.587.444.444 1.16.444 1.587 0l9.952-9.952a1.092 1.092 0 000-1.57l-9.952-9.95z" fill="#1E201D"/></symbol><symbol id="turkey" viewBox="0 0 512 512"><circle cx="256" cy="256" r="256" fill="#d80027"/><g fill="#f0f0f0"><path d="M245.518 209.186l21.005 28.945 34.017-11.03-21.038 28.92 21.002 28.944-34.005-11.072-21.037 28.92.022-35.761-34.006-11.072 34.018-11.03z"/><path d="M188.194 328.348c-39.956 0-72.348-32.392-72.348-72.348s32.392-72.348 72.348-72.348c12.458 0 24.18 3.151 34.414 8.696-16.055-15.702-38.012-25.392-62.24-25.392-49.178 0-89.043 39.866-89.043 89.043s39.866 89.043 89.043 89.043c24.23 0 46.186-9.691 62.24-25.392-10.234 5.547-21.956 8.698-34.414 8.698z"/></g></symbol><symbol id="twitter" viewBox="0 0 6701 5446"><path class="fil0" d="M6701 645c-247 109-512 183-790 216 284-170 502-440 604-761-266 158-560 272-873 334C5391 167 5034 0 4638 0c-759 0-1375 616-1375 1375 0 108 12 213 36 313-1143-57-2156-605-2834-1437-118 203-186 439-186 691 0 477 243 898 612 1144-225-7-437-69-623-172v17c0 666 474 1222 1103 1348-115 31-237 48-362 48-89 0-175-9-259-25 175 546 683 944 1284 955-471 369-1063 589-1708 589-111 0-220-7-328-19 608 390 1331 618 2108 618 2529 0 3912-2095 3912-3912 0-60-1-119-4-178 269-194 502-436 686-712z"/></symbol><symbol id="users"><g clip-path="url(#clip0)"><path d="M25.48 28.844a16.315 16.315 0 00-3.43-1.83 8.75 8.75 0 002.847-5.771 12.938 12.938 0 0116.406-1.344 1.72 1.72 0 002.444-2.337 1.719 1.719 0 00-.477-.482 16.334 16.334 0 00-3.43-1.83 8.766 8.766 0 10-11.8-.019 16.316 16.316 0 00-3.744 2.034 8.765 8.765 0 10-14.061 9.715A16.53 16.53 0 00.252 37.263a5.157 5.157 0 004.909 6.736h14.953a1.719 1.719 0 000-3.438H5.16a1.72 1.72 0 01-1.637-2.246 13.26 13.26 0 0112.6-8.97 12.856 12.856 0 017.39 2.317 1.72 1.72 0 101.966-2.819v.001zm8.47-25.406a5.328 5.328 0 110 10.656 5.328 5.328 0 010-10.656zM16.16 15.199a5.328 5.328 0 11.001 10.655 5.328 5.328 0 010-10.655zm27.845 20.637a1.719 1.719 0 01-1.72 1.719H37.56v4.726a1.719 1.719 0 01-3.438 0v-4.727h-4.724a1.719 1.719 0 110-3.438h4.726V29.39a1.72 1.72 0 113.438 0v4.726h4.726a1.718 1.718 0 011.719 1.719l-.001.001z" fill="#232020"/></g></symbol><symbol id="vk"><path d="M18.83 10.398c-.05-.086-.366-.772-1.886-2.183-1.592-1.477-1.378-1.237.539-3.792 1.167-1.556 1.634-2.506 1.488-2.912-.14-.387-.998-.285-.998-.285l-2.855.017s-.211-.029-.37.065c-.152.093-.25.307-.25.307s-.453 1.204-1.057 2.227c-1.272 2.16-1.781 2.275-1.989 2.14-.483-.312-.362-1.256-.362-1.926 0-2.093.317-2.966-.619-3.192-.31-.075-.539-.125-1.333-.133-1.02-.01-1.883.004-2.37.242-.326.16-.577.514-.424.535.19.025.617.115.844.424.293.397.282 1.293.282 1.293s.169 2.464-.393 2.77c-.386.21-.914-.218-2.048-2.179-.581-1.003-1.02-2.114-1.02-2.114s-.085-.206-.236-.317c-.183-.134-.44-.177-.44-.177L.62 1.225s-.407.012-.557.189c-.133.158-.01.483-.01.483s2.125 4.973 4.531 7.48c2.208 2.298 4.714 2.147 4.714 2.147h1.135s.343-.038.518-.227c.161-.173.155-.499.155-.499s-.022-1.524.686-1.748c.697-.22 1.592 1.473 2.541 2.125.717.492 1.262.384 1.262.384l2.538-.035s1.328-.082.699-1.126z" fill="#fff"/></symbol><symbol id="wave" viewBox="0 0 240.7 8.9"><path d="M232.1 0c-3.2-.1-6.3 1.3-9.3 4.1-2.7 2.6-5.6 3.9-8.5 3.8-4.6-.2-7.8-3.8-7.9-3.8-.1-.2-3.6-3.9-8.6-4.1-3.2-.1-6.3 1.3-9.3 4.1-2.7 2.6-5.6 3.9-8.5 3.8-4.6-.2-7.8-3.7-7.9-3.8-.1-.1-3.5-3.9-8.6-4.1-3.2-.1-6.3 1.3-9.3 4.1-2.7 2.6-5.6 3.9-8.5 3.8-4.6-.2-7.8-3.7-7.9-3.8-.1-.2-3.6-3.9-8.6-4.1-3.2-.1-6.3 1.3-9.3 4.1-2.7 2.6-5.6 3.9-8.5 3.8-4.6-.2-7.8-3.7-7.9-3.8C103.4 4 100 .2 95 0c-3.2-.1-6.3 1.3-9.3 4.1C83 6.8 80.1 8 77.2 7.9c-4.6-.2-7.8-3.7-7.9-3.8C69.2 4 65.7.2 60.7 0c-3.2-.1-6.3 1.3-9.3 4.1-2.7 2.6-5.6 3.9-8.5 3.8-4.6-.2-7.8-3.7-7.9-3.8C34.9 4 31.5.2 26.4 0c-3.2-.1-6.3 1.3-9.3 4.1-2.7 2.7-5.5 3.9-8.5 3.8C4 7.8.8 4.2.7 4.1l-.7.7c.1.2 3.5 4 8.6 4.1H9c3.1 0 6.1-1.4 8.9-4.1C20.6 2.2 23.5.9 26.4 1c4.6.2 7.8 3.7 7.9 3.8.1.2 3.5 3.9 8.6 4.1h.4c3.1 0 6.1-1.4 8.9-4.1C54.9 2.2 57.8.9 60.7 1c4.6.2 7.8 3.7 7.9 3.8.1.2 3.5 3.9 8.6 4.1h.4c3.1 0 6.1-1.4 8.9-4.1C89.1 2.2 92 .9 94.9 1c4.6.2 7.8 3.7 7.9 3.8.1.2 3.5 3.9 8.6 4.1h.4c3.1 0 6.1-1.4 8.9-4.1 2.7-2.6 5.6-3.9 8.5-3.8 4.6.2 7.8 3.7 7.9 3.8.1.2 3.5 3.9 8.6 4.1h.4c3.1 0 6.1-1.4 8.9-4.1 2.7-2.6 5.6-3.9 8.5-3.8 4.6.2 7.8 3.7 7.9 3.8.1.2 3.5 3.9 8.6 4.1h.4c3.1 0 6.1-1.4 8.9-4.1 2.7-2.6 5.6-3.9 8.5-3.8 4.6.2 7.9 3.7 7.9 3.8.1.2 3.5 3.9 8.6 4.1h.4c3.1 0 6.1-1.4 8.9-4.1 2.7-2.6 5.6-3.9 8.5-3.8 4.6.2 7.9 3.8 7.9 3.8l.7-.7c-.2-.1-3.6-3.9-8.6-4.1z"/></symbol><symbol id="youtube"><path d="M15.723 9.627c-.196-.851-.892-1.479-1.73-1.572-1.983-.222-3.992-.223-5.99-.222-2 0-4.008 0-5.992.222-.838.093-1.533.721-1.729 1.572C.003 10.839 0 12.16 0 13.409c0 1.248 0 2.57.279 3.782.195.85.891 1.479 1.729 1.572 1.984.222 3.992.223 5.991.222 2 .001 4.008 0 5.992-.222.837-.093 1.533-.721 1.729-1.572.278-1.212.28-2.534.28-3.782 0-1.248.002-2.57-.277-3.782zm-11.16.94H3.407v6.152H2.33v-6.153H1.193V9.558h3.37v1.008zm2.922 6.153h-.967v-.582c-.385.44-.75.655-1.105.655-.312 0-.526-.126-.623-.396-.053-.162-.085-.417-.085-.794v-4.22h.966v3.93c0 .226 0 .344.01.375.022.15.096.227.225.227.194 0 .397-.15.612-.453v-4.078h.967v5.336zm3.674-1.602c0 .494-.034.85-.098 1.075-.13.397-.388.6-.772.6-.345 0-.677-.19-1-.59v.517h-.967V9.558h.967v2.339c.312-.384.644-.579 1-.579.384 0 .643.203.772.602.065.215.098.568.098 1.073v2.125zm3.649-.89h-1.934v.946c0 .494.162.74.494.74.238 0 .377-.129.432-.387a6.07 6.07 0 00.021-.655h.987v.14c0 .312-.012.527-.02.623a1.378 1.378 0 01-.226.58c-.268.387-.665.578-1.17.578-.506 0-.891-.182-1.17-.546-.205-.267-.31-.688-.31-1.255v-1.869c0-.57.093-.987.298-1.257.28-.365.664-.547 1.158-.547.485 0 .87.182 1.14.547.203.27.3.687.3 1.257v1.105z" fill="#fff"/><path d="M13.358 12.189c-.323 0-.485.247-.485.74v.494h.967v-.494c0-.493-.162-.74-.482-.74zM9.771 12.189c-.159 0-.32.075-.482.235v3.252c.161.162.323.239.482.239.28 0 .42-.239.42-.72v-2.278c0-.481-.14-.728-.42-.728zM10.312 7.341c.356 0 .727-.216 1.116-.662v.588h.977V1.875h-.977v4.121c-.217.306-.422.458-.617.458-.131 0-.208-.078-.23-.23-.011-.031-.011-.15-.011-.379v-3.97h-.974v4.264c0 .38.032.638.086.802.098.273.315.4.63.4zM3.508 4.337v2.93H4.59v-2.93L5.895.03H4.799l-.74 2.842L3.292.03H2.15c.228.67.466 1.345.694 2.016.348 1.01.565 1.77.663 2.29zM7.348 7.341c.49 0 .87-.184 1.14-.552.205-.27.303-.695.303-1.268V3.633c0-.577-.098-.998-.303-1.27-.27-.37-.65-.554-1.14-.554-.487 0-.867.185-1.138.554-.207.272-.306.693-.306 1.27V5.52c0 .573.099.999.306 1.268.27.368.65.552 1.138.552zm-.466-3.904c0-.499.15-.748.466-.748.315 0 .466.249.466.748v2.268c0 .5-.151.749-.466.749-.315 0-.466-.25-.466-.749V3.437z" fill="#fff"/></symbol></svg>