<svg width="19" height="19" viewBox="0 0 19 19" fill="none" xmlns="http://www.w3.org/2000/svg">
<path d="M1.0958 0H9.40822C9.73598 0 10.002 0.266019 10.002 0.593731C10.002 0.921442 9.73593 1.18746 9.40822 1.18746H1.68953V17.8123H9.40822C9.73598 17.8123 10.002 18.0783 10.002 18.406C10.002 18.7338 9.73593 18.9998 9.40822 18.9998H1.0958C0.768037 18.9998 0.502068 18.7338 0.502068 18.406V0.593731C0.502018 0.266019 0.768037 0 1.0958 0Z" />
<path d="M14.5256 13.0313C14.3223 13.2532 14.3223 13.6122 14.5256 13.8336C14.729 14.0555 15.0582 14.0555 15.261 13.8336L18.849 9.90132C19.0493 9.68275 19.0514 9.31699 18.849 9.09847L15.2605 5.16623C15.0572 4.94431 14.728 4.94487 14.5251 5.16623C14.3218 5.3876 14.3218 5.74715 14.5251 5.96851L17.2295 8.93217H6.52006C6.23301 8.93217 6 9.18609 6 9.49959C6 9.8131 6.23301 10.0671 6.52006 10.0671H17.23L14.5256 13.0313Z" />
</svg>
