<svg width="18" height="18" viewBox="0 0 18 18" fill="none" xmlns="http://www.w3.org/2000/svg">
<path d="M1.88806 14.4552L1.77418 15.3662C1.72275 15.774 1.35173 16.0642 0.940293 16.0164C0.561923 15.9687 0.253349 15.6601 0.290084 15.1825L0.631719 12.4421C0.683148 12.0343 1.05417 11.7441 1.46193 11.7919L4.2391 12.1299C4.64686 12.1813 4.94074 12.5523 4.88931 12.9601C4.83788 13.3678 4.46685 13.6617 4.05542 13.6103L3.02317 13.4854C4.93339 16.0605 8.24689 17.1295 11.3143 16.1413C14.3816 15.1531 16.4866 12.2511 16.4939 9.04411C16.4939 8.57023 16.8098 8.269 17.2213 8.25798C17.6327 8.25064 17.9853 8.54452 17.9853 9.04411C17.9853 12.8939 15.4543 16.3801 11.7698 17.563C8.12934 18.7385 4.18767 17.4895 1.88806 14.4552Z" />
<path d="M13.7462 5.86647C13.3385 5.81504 13.0446 5.44402 13.096 5.03626C13.1475 4.6285 13.5185 4.33462 13.9299 4.38605L14.9622 4.51095C13.052 1.93582 9.73846 0.866835 6.67108 1.85501C3.60371 2.84318 1.49879 5.74524 1.49145 8.95221C1.49145 9.42609 1.17552 9.72732 0.764093 9.73834C0.352661 9.74569 4.40661e-06 9.45181 4.38478e-06 8.95221C-0.00366928 5.10606 2.52737 1.6199 6.21189 0.437035C9.85968 -0.738486 13.8013 0.510505 16.101 3.54482L16.2148 2.63379C16.2663 2.22603 16.6373 1.93582 17.0487 1.98358C17.4271 2.03133 17.7357 2.33991 17.6989 2.81746L17.3573 5.5579C17.3059 5.96565 16.9348 6.25586 16.5271 6.2081L13.7462 5.86647Z" />
</svg>
