<svg width="42" height="44" viewBox="0 0 42 44" fill="none" xmlns="http://www.w3.org/2000/svg">
<path d="M8.06553 17.6001H26.3995C26.5941 17.6001 26.7806 17.5228 26.9182 17.3852C27.0558 17.2477 27.133 17.0611 27.133 16.8666C27.133 16.672 27.0558 16.4855 26.9182 16.3479C26.7806 16.2103 26.5941 16.1331 26.3995 16.1331H8.06553C7.87099 16.1331 7.68443 16.2103 7.54687 16.3479C7.40931 16.4855 7.33203 16.672 7.33203 16.8666C7.33203 17.0611 7.40931 17.2477 7.54687 17.3852C7.68443 17.5228 7.87099 17.6001 8.06553 17.6001Z" fill="#232020"/>
<path d="M8.06553 11.7341H15.3985C15.5931 11.7341 15.7796 11.6568 15.9172 11.5193C16.0548 11.3817 16.132 11.1951 16.132 11.0006C16.132 10.8061 16.0548 10.6195 15.9172 10.4819C15.7796 10.3444 15.5931 10.2671 15.3985 10.2671H8.06553C7.87099 10.2671 7.68443 10.3444 7.54687 10.4819C7.40931 10.6195 7.33203 10.8061 7.33203 11.0006C7.33203 11.1951 7.40931 11.3817 7.54687 11.5193C7.68443 11.6568 7.87099 11.7341 8.06553 11.7341Z" fill="#232020"/>
<path d="M8.06553 23.467H26.3995C26.5941 23.467 26.7806 23.3897 26.9182 23.2522C27.0558 23.1146 27.133 22.928 27.133 22.7335C27.133 22.539 27.0558 22.3524 26.9182 22.2148C26.7806 22.0773 26.5941 22 26.3995 22H8.06553C7.87099 22 7.68443 22.0773 7.54687 22.2148C7.40931 22.3524 7.33203 22.539 7.33203 22.7335C7.33203 22.928 7.40931 23.1146 7.54687 23.2522C7.68443 23.3897 7.87099 23.467 8.06553 23.467Z" fill="#232020"/>
<path d="M20.5325 27.8669H8.06553C7.87099 27.8669 7.68443 27.9442 7.54687 28.0818C7.40931 28.2193 7.33203 28.4059 7.33203 28.6004C7.33203 28.795 7.40931 28.9815 7.54687 29.1191C7.68443 29.2567 7.87099 29.3339 8.06553 29.3339H20.5325C20.7271 29.3339 20.9136 29.2567 21.0512 29.1191C21.1888 28.9815 21.266 28.795 21.266 28.6004C21.266 28.4059 21.1888 28.2193 21.0512 28.0818C20.9136 27.9442 20.7271 27.8669 20.5325 27.8669Z" fill="#232020"/>
<path d="M18.3325 33.7329H8.06553C7.87099 33.7329 7.68443 33.8102 7.54687 33.9477C7.40931 34.0853 7.33203 34.2719 7.33203 34.4664C7.33203 34.6609 7.40931 34.8475 7.54687 34.9851C7.68443 35.1226 7.87099 35.1999 8.06553 35.1999H18.3325C18.5271 35.1999 18.7136 35.1226 18.8512 34.9851C18.9888 34.8475 19.066 34.6609 19.066 34.4664C19.066 34.2719 18.9888 34.0853 18.8512 33.9477C18.7136 33.8102 18.5271 33.7329 18.3325 33.7329Z" fill="#232020"/>
<path d="M34.467 25.2V10.7L23.77 0H0V44H32.267C34.6033 44.0015 36.8587 43.1446 38.6046 41.5921C40.3504 40.0397 41.4651 37.8999 41.7366 35.5794C42.0082 33.259 41.4177 30.9196 40.0774 29.006C38.7371 27.0924 36.7405 25.7379 34.467 25.2ZM24.2 2.5L31.963 10.263H24.2V2.5ZM27.191 42.53H1.467V1.467H22.733V11.733H33V24.966C32.749 24.945 32.506 24.934 32.267 24.934C29.7396 24.9369 27.3165 25.9422 25.5294 27.7294C23.7422 29.5165 22.7369 31.9396 22.734 34.467C22.734 34.76 22.752 35.048 22.778 35.335C22.784 35.402 22.79 35.468 22.798 35.535C22.83 35.815 22.87 36.092 22.925 36.364C22.932 36.396 22.94 36.428 22.947 36.464C23 36.712 23.064 36.955 23.135 37.196C23.153 37.256 23.17 37.317 23.189 37.376C23.2717 37.634 23.3647 37.8873 23.468 38.136C23.488 38.183 23.51 38.228 23.53 38.275C23.6247 38.4923 23.727 38.7047 23.837 38.912C23.863 38.962 23.888 39.012 23.915 39.062C24.043 39.2947 24.181 39.5213 24.329 39.742C24.363 39.793 24.398 39.842 24.429 39.891C24.5623 40.0843 24.703 40.2727 24.851 40.456C24.879 40.49 24.905 40.526 24.934 40.556C25.103 40.756 25.282 40.956 25.468 41.143C25.513 41.189 25.56 41.234 25.607 41.279C25.787 41.454 25.971 41.624 26.164 41.785C26.181 41.8 26.197 41.815 26.215 41.829C26.422 41.999 26.638 42.158 26.86 42.312C26.914 42.349 26.968 42.385 27.022 42.421C27.076 42.457 27.134 42.5 27.191 42.533V42.53ZM32.267 42.53C31.2001 42.5419 30.1415 42.342 29.1524 41.942C28.1633 41.5419 27.2634 40.9496 26.5048 40.1994C25.7462 39.4492 25.1439 38.5559 24.7329 37.5713C24.3218 36.5868 24.1102 35.5304 24.1102 34.4635C24.1102 33.3966 24.3218 32.3402 24.7329 31.3557C25.1439 30.3711 25.7462 29.4778 26.5048 28.7276C27.2634 27.9774 28.1633 27.3851 29.1524 26.985C30.1415 26.585 31.2001 26.3851 32.267 26.397C32.496 26.397 32.722 26.412 32.946 26.431C33.17 26.45 33.38 26.479 33.613 26.518L33.938 26.572C35.8885 26.9851 37.6169 28.1059 38.7898 29.7182C39.9626 31.3306 40.4967 33.3201 40.2891 35.3031C40.0814 37.286 39.1467 39.1218 37.6653 40.4562C36.1839 41.7905 34.2608 42.529 32.267 42.529V42.53Z" fill="#232020"/>
<path d="M36.0674 30.3819L31.9674 36.2819L29.0674 33.9049C28.993 33.8439 28.9072 33.7981 28.8151 33.7702C28.7229 33.7422 28.6261 33.7327 28.5303 33.7422C28.4345 33.7517 28.3414 33.7799 28.2565 33.8254C28.1716 33.8708 28.0965 33.9325 28.0354 34.0069C27.9744 34.0814 27.9286 34.1672 27.9006 34.2593C27.8727 34.3515 27.8632 34.4482 27.8727 34.5441C27.8822 34.6399 27.9104 34.7329 27.9558 34.8178C28.0013 34.9027 28.063 34.9779 28.1374 35.0389L31.6474 37.9199C31.7787 38.0272 31.9429 38.0859 32.1124 38.0859C32.1459 38.0858 32.1793 38.0834 32.2124 38.0789C32.3124 38.0647 32.4083 38.0301 32.4943 37.9773C32.5803 37.9245 32.6546 37.8546 32.7124 37.7719L37.2674 31.2199C37.3613 31.0607 37.3916 30.8718 37.3523 30.6912C37.3129 30.5105 37.2069 30.3513 37.0553 30.2455C36.9037 30.1396 36.7178 30.0949 36.5346 30.1202C36.3515 30.1455 36.1846 30.239 36.0674 30.3819Z" fill="#232020"/>
</svg>

