<svg width="44" height="44" viewBox="0 0 44 44" fill="none" xmlns="http://www.w3.org/2000/svg">
<path d="M31.5769 12.4238C31.1262 11.9725 30.5909 11.6144 30.0016 11.3701C29.4124 11.1258 28.7808 11 28.1429 11C27.505 11 26.8734 11.1258 26.2842 11.3701C25.6949 11.6144 25.1596 11.9725 24.7089 12.4238L12.1169 25.0118C12.0197 25.1095 11.9572 25.2363 11.9389 25.3728L11.0059 32.2828C10.9926 32.3789 11.0018 32.4768 11.0327 32.5687C11.0636 32.6607 11.1153 32.7442 11.1839 32.8128C11.302 32.9312 11.4617 32.9987 11.6289 33.0008C11.6569 33.0031 11.685 33.0031 11.7129 33.0008L15.8759 32.4378C16.0438 32.4155 16.1959 32.3275 16.2989 32.193C16.4019 32.0586 16.4472 31.8887 16.4249 31.7208C16.4026 31.5529 16.3146 31.4008 16.1801 31.2978C16.0456 31.1949 15.8758 31.1495 15.7079 31.1718L12.3699 31.6218L13.0219 26.8028L18.0949 31.8758C18.213 31.9942 18.3727 32.0617 18.5399 32.0638C18.6229 32.0638 18.705 32.0472 18.7814 32.0149C18.8579 31.9826 18.9271 31.9353 18.9849 31.8758L31.5769 19.2918C32.0286 18.8413 32.387 18.3061 32.6316 17.7168C32.8761 17.1275 33.002 16.4958 33.002 15.8578C33.002 15.2198 32.8761 14.5881 32.6316 13.9988C32.387 13.4096 32.0286 12.8744 31.5769 12.4238ZM24.9519 13.9718L27.0659 16.0858L15.5759 27.5718L13.4619 25.4618L24.9519 13.9718ZM18.5439 30.5388L16.4759 28.4718L27.9659 16.9818L30.0329 19.0488L18.5439 30.5388ZM30.9159 18.1388L25.8569 13.0848C26.5462 12.5163 27.4225 12.2251 28.315 12.2678C29.2074 12.3106 30.0519 12.6843 30.6837 13.3161C31.3155 13.9478 31.6892 14.7923 31.7319 15.6848C31.7747 16.5772 31.4834 17.4536 30.9149 18.1428L30.9159 18.1388Z" fill="#7E2E84"/>
<rect x="0.5" y="0.5" width="43" height="43" stroke="#7E2E84"/>
</svg>
