<svg xmlns="http://www.w3.org/2000/svg" xmlns:xlink="http://www.w3.org/1999/xlink" preserveAspectRatio="xMidYMid" width="70" height="70" viewBox="0 0 40 40">
    <path  d="m 0,0.031 40,-0.032 v 39.97 l -40,0.03 z" />
    <path style="display: inline; fill: none; fill-rule: evenodd; stroke: #ffffff; stroke-width: 2px;" d="m 12.533,60.999 c 0,0 4.493,-27.468 -7.533,-30 -12.026,-2.532 -21.871,-12.793 -19.767,-29.654 3.136,-25.12 29.756,-25.443 38.999,-18.474 9.243,6.972 12.015,15.607 8.091,28.288 C 26.9,28.678 6.036,26.855 0,17.999 -6.036,9.143 -1.755,-8.826 13.444,-7.699 c 8.228,0.61 10.788,5.926 10.788,10.776 0,6.583 -3.382,10.585 -8.286,11.904 C 11.041,16.3 5.178,13.281 5,9 4.821,4.717 7.344,3.091 10,3 c 2.656,-0.092 4.908,0.886 5,3.999 0.091,3.114 -4,3 -4,3"/>
    <path  style="fill: none; fill-rule: evenodd; stroke: #ffffff; stroke-width: 2px;" d="m 36.693,69.999 c 0,0 -2.935,-15.524 3.454,-16.263 6.39,-0.739 13.961,-7.221 12.715,-16.474 C 51.005,23.475 35.239,23.298 29.765,27.124 c -5.474,3.826 -7.04,8.543 -4.792,15.524 2.649,8.225 15.592,7.816 19.167,2.957 3.575,-4.859 1.016,-13.925 -7.986,-13.306 -4.873,0.334 -6.389,3.252 -6.389,5.914 0,3.612 2.003,5.808 4.907,6.532 2.905,0.724 5.728,-0.324 6.064,-2.806 0.335,-2.482 -1.245,-4.056 -3.032,-4.677 -1.788,-0.62 -2.92,0.216 -3.032,1.871 -0.111,1.655 2.021,2.806 2.021,2.806" />

</svg>
