<svg width="155" height="72" viewBox="0 0 155 72" fill="none" xmlns="http://www.w3.org/2000/svg">
<path d="M100.533 59.3135C100.403 58.6646 100.212 58.0292 99.965 57.4153C99.8844 57.1897 99.7383 56.9932 99.5454 56.8509C99.3526 56.7087 99.1217 56.6272 98.8823 56.6167C98.6429 56.6063 98.4058 56.6675 98.2013 56.7925C97.9969 56.9175 97.8343 57.1006 97.7343 57.3184C97.3922 57.9352 97.2128 58.6289 97.2128 59.3343C97.2128 60.0396 97.3922 60.7334 97.7343 61.3502C97.8422 61.572 98.0135 61.7568 98.2264 61.8812C98.4393 62.0057 98.6844 62.0642 98.9306 62.0494C99.1768 62.0345 99.4131 61.947 99.6095 61.7979C99.806 61.6488 99.9538 61.4448 100.034 61.2117C100.253 60.5938 100.42 59.959 100.533 59.3135ZM96.2796 68.347C96.3166 68.6561 96.4199 68.9535 96.5825 69.2189C96.7452 69.4844 96.9632 69.7115 97.2217 69.8849C97.717 70.1944 98.2761 70.3876 98.8568 70.4499C99.4375 70.5123 100.025 70.4423 100.575 70.2452C100.935 70.1624 101.27 69.993 101.55 69.7516C101.83 69.5101 102.047 69.2039 102.182 68.8597C102.279 68.6843 102.331 68.4878 102.334 68.2875C102.337 68.0872 102.29 67.8893 102.199 67.7113C102.107 67.5332 101.973 67.3805 101.808 67.2666C101.643 67.1528 101.453 67.0813 101.254 67.0585C100.084 66.8372 98.8884 66.7951 97.7066 66.9338C97.3325 66.9338 96.9584 66.9338 96.7368 67.3356C96.5151 67.7374 96.432 67.9868 96.2796 68.3193V68.347ZM97.1524 71.7692C96.7783 71.6723 96.4043 71.603 96.0302 71.4783C95.6173 71.3808 95.2303 71.1954 94.8956 70.9348C94.5608 70.6741 94.2862 70.3444 94.0904 69.9681C93.9844 69.7094 93.9516 69.4264 93.9955 69.1503C94.0395 68.8741 94.1587 68.6154 94.3398 68.4025L95.9055 66.6428C95.517 66.3568 95.1468 66.0468 94.797 65.7146C94.5938 65.52 94.4334 65.2852 94.3261 65.0252C94.2187 64.7652 94.1668 64.4856 94.1736 64.2044C94.1975 63.9131 94.3031 63.6346 94.4784 63.4007C94.8386 62.9435 95.282 62.5279 95.6145 62.1677C95.2482 61.6718 94.937 61.1375 94.6862 60.5743C94.3814 59.8171 94.367 58.9741 94.6458 58.207C94.9245 57.4399 95.4767 56.8027 96.1964 56.4178C97.096 55.8465 98.1533 55.5749 99.2168 55.6419C100.045 55.6609 100.868 55.7771 101.669 55.9883C102.389 56.1778 103.155 56.0784 103.803 55.7112C104.122 55.5588 104.454 55.4479 104.773 55.3232L104.897 55.4202L104.385 56.4455C104.385 56.5702 104.232 56.6811 104.163 56.8057C104.123 56.9249 104.043 57.0267 103.938 57.0947C103.832 57.1627 103.706 57.1927 103.581 57.1798C103.256 57.175 102.931 57.2029 102.611 57.2629C102.852 57.8585 103.015 58.4824 103.096 59.1195C103.154 59.7345 103.032 60.3529 102.747 60.9009C102.462 61.4488 102.026 61.9031 101.489 62.2092C100.794 62.6188 100.016 62.8663 99.2126 62.9335C98.409 63.0007 97.6006 62.8857 96.8476 62.5972C96.7091 62.5972 96.4458 62.5972 96.4042 62.5972C96.2467 62.836 96.1602 63.1147 96.1549 63.4007C96.208 63.6525 96.3516 63.8761 96.5583 64.0292C96.7651 64.1824 97.0208 64.2545 97.2771 64.2321C98.0392 64.2321 98.8012 64.1351 99.5771 64.1628C100.575 64.1628 101.586 64.2321 102.584 64.3291C103.087 64.3892 103.557 64.6151 103.918 64.9712C104.279 65.3274 104.512 65.7936 104.579 66.2965C104.694 66.845 104.666 67.4142 104.496 67.9485C104.326 68.4827 104.02 68.9637 103.609 69.3446C102.444 70.6171 100.861 71.4285 99.1476 71.6307C99.1476 71.6307 99.0783 71.6307 99.0367 71.7277L97.1524 71.7692Z" fill="#1D1D1B"/>
<path d="M4.1011 61.5995C4.1011 62.6664 4.1011 63.7193 4.1011 64.7862C4.0913 64.8481 4.09398 64.9114 4.10896 64.9723C4.12395 65.0332 4.15094 65.0905 4.18837 65.1409C4.22579 65.1912 4.27288 65.2335 4.32689 65.2654C4.3809 65.2973 4.44076 65.3181 4.50291 65.3266C5.0852 65.4818 5.70124 65.4533 6.26672 65.245C6.8322 65.0367 7.31949 64.6587 7.66187 64.1627C8.08048 63.5655 8.35468 62.8791 8.46287 62.1578C8.57106 61.4365 8.51027 60.7 8.28533 60.0062C8.11801 59.3341 7.72581 58.7395 7.17385 58.3211C6.62188 57.9027 5.94336 57.6857 5.25105 57.7063C4.46131 57.7063 4.1011 58.0942 4.1011 58.8701V61.6411V61.5995ZM0.0138264 56.7502C0.0546476 56.6442 0.124301 56.5517 0.214879 56.4832C0.305458 56.4146 0.413352 56.3728 0.526458 56.3623L3.64386 55.8912C3.7682 55.8781 3.89362 55.8781 4.01797 55.8912V57.1798L5.52817 56.3346C6.14396 55.9796 6.85628 55.8287 7.5631 55.9034C8.26992 55.978 8.93497 56.2745 9.46302 56.7502C10.4329 57.4454 11.0977 58.4874 11.3196 59.6598C11.5986 60.8695 11.4936 62.136 11.0193 63.2832C10.545 64.4305 9.72499 65.4014 8.67327 66.0609C7.94252 66.4507 7.15067 66.7131 6.33175 66.8368C5.75386 66.8653 5.17913 66.736 4.66916 66.4626L4.0041 66.1579C4.0041 66.5597 4.1011 66.8644 4.1011 67.1554C4.1011 67.9867 4.1011 68.818 4.1011 69.6493C4.08473 69.7755 4.11723 69.9032 4.19192 70.0063C4.26662 70.1093 4.37788 70.1799 4.50291 70.2035C5.00169 70.3698 5.50044 70.5776 5.98537 70.7855C6.09621 70.7855 6.23477 71.0072 6.20706 71.0903C6.17935 71.1734 6.20709 71.5752 5.84686 71.5475C5.48662 71.5198 4.84926 71.5475 4.35048 71.5475H1.21921V71.0072C1.21921 66.8506 1.21921 62.5832 1.21921 58.3713C1.242 58.2002 1.21006 58.0263 1.12793 57.8745C1.04579 57.7226 0.917697 57.6007 0.762014 57.5261C0.500402 57.3918 0.246057 57.2438 0 57.0828L0.0138264 56.7502Z" fill="#1D1D1B"/>
<path d="M152.351 55.9329C152.569 55.942 152.787 55.904 152.989 55.8216C153.191 55.7392 153.374 55.6143 153.523 55.4553C153.673 55.2963 153.787 55.107 153.857 54.9001C153.927 54.6933 153.952 54.4738 153.93 54.2564C153.951 54.0319 153.925 53.8055 153.853 53.5917C153.782 53.3779 153.666 53.1813 153.514 53.0147C153.362 52.848 153.177 52.7149 152.971 52.6238C152.765 52.5327 152.542 52.4857 152.316 52.4857C152.091 52.4857 151.868 52.5327 151.661 52.6238C151.455 52.7149 151.27 52.848 151.118 53.0147C150.966 53.1813 150.851 53.3779 150.779 53.5917C150.708 53.8055 150.681 54.0319 150.702 54.2564C150.69 54.4767 150.725 54.697 150.803 54.9032C150.882 55.1093 151.003 55.2967 151.158 55.4534C151.313 55.61 151.5 55.7324 151.705 55.8126C151.911 55.8928 152.131 55.9291 152.351 55.9191V55.9329ZM154.54 54.8661C154.29 55.4765 153.821 55.9709 153.224 56.2516C152.863 56.4133 152.465 56.4742 152.072 56.4278C151.679 56.3815 151.306 56.2296 150.993 55.9883C150.645 55.7534 150.375 55.4189 150.219 55.0284C150.063 54.6379 150.029 54.2096 150.12 53.7992C150.175 53.3644 150.369 52.9591 150.674 52.6442C150.979 52.3294 151.378 52.1221 151.811 52.0535C152.089 51.9706 152.382 51.9463 152.67 51.9821C152.958 52.0178 153.236 52.1129 153.486 52.2612C153.736 52.4096 153.953 52.608 154.122 52.8441C154.291 53.0802 154.41 53.3488 154.471 53.633L154.54 54.8661Z" fill="#1D1D1B"/>
<path d="M100.949 4.89085C101.025 3.91647 100.782 2.94385 100.256 2.11983C100.113 1.94083 99.932 1.79626 99.7257 1.69692C99.5194 1.59758 99.2935 1.54601 99.0645 1.54601C98.8356 1.54601 98.6095 1.59758 98.4033 1.69692C98.197 1.79626 98.0157 1.94083 97.873 2.11983C97.3894 2.91276 97.1279 3.82105 97.1157 4.74971C97.1035 5.67837 97.3411 6.59327 97.8037 7.39862C97.9511 7.61557 98.1521 7.79078 98.3871 7.90732C98.6221 8.02386 98.8832 8.07774 99.1452 8.06381C99.4071 8.04987 99.661 7.9686 99.8823 7.82779C100.104 7.68698 100.285 7.49143 100.408 7.26006C100.808 6.54199 100.995 5.72514 100.949 4.90468V4.89085ZM99.2446 13.8135H97.7898C97.3367 13.8265 96.9048 14.0086 96.5792 14.324C96.2536 14.6394 96.0577 15.0652 96.0302 15.5177C96.0251 15.8858 96.1172 16.2487 96.2972 16.5698C96.4772 16.891 96.7388 17.1589 97.0555 17.3466C97.7275 17.7908 98.503 18.0536 99.3066 18.1094C100.11 18.1652 100.915 18.0123 101.642 17.6653C101.998 17.5375 102.319 17.3261 102.577 17.0489C102.835 16.7716 103.022 16.4366 103.124 16.0719C103.216 15.8594 103.258 15.6285 103.245 15.3973C103.233 15.1661 103.167 14.9409 103.053 14.7394C102.939 14.538 102.779 14.3658 102.587 14.2364C102.395 14.1069 102.176 14.0239 101.946 13.9936C101.06 13.8551 100.159 13.8274 99.2585 13.7581L99.2446 13.8135ZM106.186 0.0692586C105.964 0.554187 105.729 1.02526 105.521 1.45477C105.449 1.70863 105.283 1.92514 105.056 2.05932C104.829 2.1935 104.559 2.23501 104.302 2.17522C103.984 2.17334 103.668 2.2106 103.36 2.28608C103.395 2.39239 103.441 2.49459 103.498 2.5909C103.78 3.07093 103.962 3.60259 104.034 4.15433C104.106 4.70608 104.066 5.26665 103.918 5.80288C103.769 6.33911 103.515 6.84006 103.169 7.276C102.823 7.71194 102.393 8.07402 101.905 8.34076C101.024 8.79618 100.051 9.04532 99.0597 9.06933C98.0684 9.09333 97.0845 8.89157 96.1826 8.47932C95.379 9.33833 95.7393 10.0726 96.5429 10.5853C96.6756 10.6532 96.8233 10.6866 96.9724 10.6823C98.1224 10.6823 99.2862 10.5853 100.436 10.5991C101.586 10.613 102.528 10.6823 103.567 10.7793C104.182 10.9171 104.738 11.2436 105.158 11.7132C105.578 12.1827 105.84 12.7717 105.909 13.3979C105.947 14.1652 105.797 14.9303 105.471 15.626C105.145 16.3217 104.653 16.9267 104.038 17.3881C102.76 18.4973 101.194 19.2226 99.5217 19.4803C98.6009 19.6854 97.6479 19.7002 96.7211 19.5239C95.7943 19.3476 94.9133 18.9838 94.1321 18.455C93.8747 18.302 93.657 18.0907 93.4962 17.8382C93.3355 17.5856 93.2363 17.2988 93.2067 17.001C93.177 16.7031 93.2177 16.4024 93.3255 16.1231C93.4333 15.8438 93.6052 15.5937 93.8273 15.393L95.4067 13.8689L95.7116 13.5087C95.1347 13.2642 94.6248 12.885 94.2247 12.4029C93.8245 11.9207 93.5457 11.3497 93.4116 10.7377C93.2592 10.1281 93.6472 9.79556 93.952 9.35219C94.2568 8.90883 94.8248 8.41005 95.2682 7.96668C94.9892 7.70439 94.7298 7.42189 94.4923 7.1215C93.9033 6.25244 93.6752 5.18844 93.8562 4.15429C94.0371 3.12014 94.613 2.19684 95.4622 1.57946C96.1587 1.07046 96.9514 0.708482 97.7922 0.51555C98.633 0.322617 99.5043 0.302764 100.353 0.4572C101.406 0.609606 102.459 0.817426 103.512 0.969832C103.693 0.964627 103.87 0.912105 104.025 0.817446L105.673 0.166254C105.673 0.166254 105.784 0.0554204 105.84 0L106.186 0.0692586Z" />
<path d="M87.4664 38.9467C87.4279 39.4678 87.316 39.9809 87.1339 40.4708C86.8641 40.8174 86.518 41.0972 86.1224 41.2882C84.9211 42.0075 83.5696 42.439 82.1737 42.549C80.8109 42.7427 79.4216 42.6194 78.1142 42.1888C77.2967 41.8998 76.5901 41.3624 76.0932 40.6519C75.5963 39.9413 75.334 39.0932 75.3431 38.2262C75.3431 30.0794 75.3431 21.9465 75.3431 13.7997V13.1762H68.4156V13.7027C68.4156 19.9513 68.4156 26.1723 68.4156 32.4486C68.4156 34.2359 68.1662 36.0094 68 37.7829C68 38.2955 67.8337 38.7943 67.7506 39.3069C67.6922 39.6969 67.5339 40.0652 67.2911 40.376C67.0484 40.6867 66.7294 40.9294 66.3651 41.0804C65.0567 41.7251 63.6534 42.1554 62.2085 42.355C61.1971 42.5074 60.1718 42.5906 59.1465 42.6876C59.0675 42.6898 58.9888 42.6762 58.9151 42.6476C58.8413 42.6191 58.774 42.5761 58.717 42.5213C58.4815 42.2026 58.2875 41.8424 58.052 41.4545C59.0496 40.5262 60.0333 39.6117 61.0032 38.6834C61.4987 38.2816 61.962 37.8415 62.3887 37.3672C62.6304 37.0036 62.7736 36.5835 62.8043 36.148C62.9614 34.8883 63.0493 33.6209 63.0675 32.3516C63.0675 26.1723 63.0675 19.979 63.0675 13.7858V13.2039C60.2252 12.9844 57.372 13.4599 54.7545 14.5894C54.7203 14.4246 54.674 14.2625 54.6159 14.1045C54.2141 13.2039 54.8237 12.719 55.3918 12.2617C57.1051 10.8747 59.1655 9.98348 61.3495 9.68471C62.266 9.53498 63.1921 9.45164 64.1205 9.43533C70.1475 9.43533 76.1745 9.43533 82.2014 9.43533C83.5265 9.42465 84.8462 9.26662 86.1363 8.96422C86.9676 8.7841 87.7989 8.67328 88.6302 8.54858C88.8935 8.54858 89.0874 8.63173 89.032 8.95039C88.8296 10.8427 88.1841 12.6607 87.1477 14.2569C86.9251 14.5096 86.6842 14.7458 86.4272 14.9635C85.5821 14.4786 84.7646 14.0214 83.9472 13.578C83.5303 13.3268 83.0477 13.2062 82.5617 13.2316C82.1876 13.2316 81.8274 13.2316 81.3979 13.2316V13.8274C81.3979 21.42 81.3979 29.068 81.3979 36.6329C81.3837 36.8934 81.4507 37.152 81.5897 37.3728C81.7286 37.5937 81.9327 37.766 82.1737 37.866C83.1104 38.3228 84.1175 38.6179 85.1526 38.7389C85.8869 38.8636 86.6212 38.9328 87.4387 39.0298" />
<path d="M26.6422 65.0218C27.2464 65.331 27.9479 65.3907 28.5957 65.1881C29.2001 65.007 29.7408 64.6584 30.1552 64.1827C30.5696 63.707 30.8408 63.1237 30.9373 62.5002C31.1897 61.7083 31.1921 60.858 30.9442 60.0647C30.6963 59.2715 30.2101 58.5738 29.5517 58.0665C29.169 57.7449 28.6928 57.5551 28.1937 57.5251C27.6946 57.4952 27.1992 57.6267 26.7807 57.9003C26.7343 57.9346 26.6956 57.9782 26.667 58.0283C26.6384 58.0784 26.6205 58.1339 26.6145 58.1913C26.6145 60.4774 26.6145 62.7496 26.6145 65.0357L26.6422 65.0218ZM26.6145 55.6973V56.9581L28.568 55.9467C28.9328 55.7779 29.3299 55.6905 29.7319 55.6905C30.1338 55.6905 30.5309 55.7779 30.8957 55.9467C31.68 56.2204 32.3747 56.7032 32.9046 57.343C33.4345 57.9827 33.7795 58.7552 33.9023 59.5768C34.1314 60.5642 34.0999 61.5943 33.8109 62.5659C33.5218 63.5375 32.9852 64.4172 32.2535 65.1188C31.5673 65.871 30.6509 66.3743 29.648 66.5498C28.6451 66.7253 27.6123 66.5631 26.7115 66.0887V66.9477C26.7115 67.7097 26.7115 68.4579 26.7115 69.2199C26.6914 69.3192 26.6913 69.4214 26.7112 69.5207C26.7311 69.6199 26.7706 69.7142 26.8273 69.7981C26.8841 69.8819 26.957 69.9536 27.0417 70.009C27.1265 70.0643 27.2215 70.1023 27.3211 70.1205C27.8476 70.2729 28.3463 70.4946 28.8451 70.6747C28.7758 71.409 28.7759 71.409 28.1385 71.409H23.8296V70.8825C23.8296 66.6336 23.8296 62.3801 23.8296 58.122C23.844 57.9682 23.8104 57.8137 23.7335 57.6797C23.6566 57.5458 23.5401 57.4389 23.4001 57.3738C23.22 57.2629 23.026 57.166 22.8598 57.0413C22.6935 56.9166 22.6104 56.778 22.6381 56.6949C22.6658 56.6118 22.8459 56.2931 22.9983 56.2515C23.7326 56.0853 24.4669 55.9467 25.2151 55.822C25.6862 55.7389 26.1572 55.7112 26.6006 55.6558" fill="#1D1D1B"/>
<path d="M141.338 61.475C141.338 62.5142 141.338 63.5671 141.338 64.6063C141.322 64.7398 141.357 64.8744 141.437 64.9827C141.517 65.0909 141.635 65.1644 141.767 65.1882C142.353 65.3794 142.985 65.3702 143.565 65.1619C144.144 64.9537 144.638 64.5583 144.968 64.0382C145.506 63.3018 145.811 62.421 145.843 61.5096C145.875 60.5982 145.633 59.6981 145.148 58.9257C144.829 58.3293 144.291 57.8801 143.647 57.6732C143.004 57.4664 142.305 57.518 141.698 57.8173C141.582 57.8629 141.484 57.9466 141.421 58.0548C141.358 58.1629 141.334 58.2892 141.352 58.413C141.352 59.4383 141.352 60.4498 141.352 61.475H141.338ZM141.352 55.6836V57.0691C141.837 56.792 142.322 56.5288 142.737 56.2378C143.319 55.8979 143.99 55.7412 144.662 55.7881C145.334 55.8351 145.977 56.0835 146.506 56.5011C147.201 56.9424 147.768 57.5588 148.15 58.2883C148.531 59.0178 148.715 59.8349 148.681 60.6576C148.74 61.7583 148.501 62.8544 147.988 63.8304C147.613 64.5252 147.094 65.1318 146.466 65.6097C145.837 66.0876 145.114 66.4257 144.344 66.6014C143.914 66.7247 143.463 66.7613 143.018 66.709C142.574 66.6567 142.144 66.5165 141.754 66.2966L141.366 66.1165V69.9543L143.513 70.7857C143.513 71.0212 143.402 71.2429 143.347 71.4645H138.511V70.8134C138.511 66.6568 138.511 62.4172 138.511 58.2191C138.537 58.0388 138.504 57.855 138.416 57.6952C138.329 57.5355 138.192 57.4082 138.027 57.3323C137.847 57.2476 137.68 57.1406 137.528 57.0137C137.417 56.9167 137.251 56.7643 137.264 56.6673C137.278 56.5703 137.375 56.1962 137.68 56.1547L140.756 55.6974L141.269 55.6282" fill="#1D1D1B"/>
<path d="M135.711 66.5734C135.16 66.7107 134.578 66.6465 134.07 66.3924C133.562 66.1384 133.161 65.7112 132.94 65.1879C132.502 65.5732 132.039 65.9295 131.555 66.2548C130.808 66.7175 129.911 66.8763 129.051 66.6985C128.19 66.5207 127.43 66.0197 126.927 65.2988C126.628 64.6989 126.458 64.0428 126.428 63.3729C126.359 62.2507 126.428 61.1145 126.428 59.9784C126.428 59.3134 126.428 58.5929 126.512 57.9971C126.538 57.8852 126.521 57.7675 126.465 57.6673C126.408 57.5672 126.316 57.492 126.207 57.4568C125.976 57.3487 125.754 57.2236 125.542 57.0827C125.417 57.0134 125.223 56.8333 125.251 56.7917C125.319 56.586 125.45 56.4068 125.625 56.2791C125.916 56.1814 126.219 56.1254 126.525 56.1129L129.463 55.8496C129.454 55.9973 129.454 56.1453 129.463 56.2929C129.463 58.579 129.366 60.8651 129.38 63.2205C129.356 63.5029 129.406 63.7867 129.524 64.044C129.643 64.3013 129.827 64.5233 130.058 64.6882C130.288 64.853 130.558 64.9552 130.839 64.9845C131.121 65.0138 131.406 64.9693 131.666 64.8554C132.018 64.7464 132.347 64.5725 132.635 64.3428C132.713 64.2774 132.776 64.197 132.821 64.1065C132.866 64.016 132.893 63.9173 132.899 63.8163C132.899 61.9043 132.899 60.0061 132.899 58.108C132.899 57.6507 132.594 57.5676 132.317 57.4014C132.04 57.2351 131.832 57.1935 131.596 57.0688C131.361 56.9441 131.347 56.8749 131.361 56.8333C131.375 56.7917 131.555 56.3484 131.693 56.3207C132.996 56.1821 134.298 56.0713 135.6 55.9604C135.669 55.9466 135.74 55.9466 135.808 55.9604L135.711 66.5734Z" fill="#1D1D1B"/>
<path d="M117.075 61.1841C117.075 61.5582 117.158 62.154 117.269 62.722C117.394 63.6924 117.837 64.594 118.53 65.2852C118.759 65.4923 119.044 65.6276 119.349 65.6744C119.655 65.7212 119.967 65.6774 120.248 65.5485C120.508 65.3995 120.737 65.2003 120.92 64.9625C121.103 64.7247 121.237 64.4529 121.315 64.163C121.763 62.8254 121.877 61.3983 121.647 60.0065C121.547 59.1243 121.259 58.2738 120.802 57.5125C120.666 57.2479 120.459 57.026 120.205 56.871C119.951 56.7161 119.659 56.6341 119.361 56.6341C119.063 56.6341 118.772 56.7161 118.517 56.871C118.263 57.026 118.057 57.2479 117.92 57.5125C117.304 58.6146 117.012 59.8679 117.075 61.1287V61.1841ZM124.889 61.0594C125.003 61.8526 124.943 62.6611 124.714 63.4291C124.485 64.197 124.093 64.9062 123.563 65.5077C123.034 66.1091 122.38 66.5886 121.648 66.9131C120.915 67.2376 120.12 67.3993 119.319 67.3871C118.518 67.375 117.729 67.1892 117.006 66.8426C116.284 66.496 115.645 65.9969 115.134 65.3796C114.623 64.7623 114.252 64.0416 114.047 63.267C113.841 62.4925 113.806 61.6826 113.944 60.8932C113.984 59.4623 114.59 58.1058 115.629 57.1213C116.668 56.1368 118.055 55.6048 119.486 55.6421C120.211 55.5957 120.937 55.7038 121.617 55.9592C122.296 56.2147 122.914 56.6117 123.429 57.1239C123.944 57.636 124.344 58.2518 124.603 58.9302C124.862 59.6087 124.974 60.3345 124.931 61.0594" fill="#1D1D1B"/>
<path d="M63.5808 61.1147C63.0543 61.3502 62.4724 61.5719 61.9321 61.8351C61.6441 61.9548 61.388 62.1398 61.1839 62.3755C61.0183 62.6059 60.9134 62.8743 60.8788 63.1559C60.8442 63.4375 60.881 63.7233 60.9859 63.9869C61.0908 64.2506 61.2604 64.4835 61.479 64.6644C61.6976 64.8452 61.9583 64.9682 62.2369 65.0218C62.7634 65.1327 63.6224 64.7032 63.6224 64.2875C63.6224 63.2345 63.6224 62.1954 63.6224 61.1147H63.5808ZM60.3526 59.1057C59.7948 59.1075 59.2381 59.0565 58.69 58.9533C58.4683 58.9533 58.3159 58.5099 58.1496 58.2605C58.1009 58.1636 58.0637 58.0613 58.0388 57.9557C58.4544 57.6648 58.8701 57.3322 59.3135 57.0828C60.3815 56.3991 61.5719 55.9286 62.8188 55.6973C63.6097 55.6415 64.395 55.8666 65.0363 56.3329C65.6775 56.7993 66.1336 57.477 66.3241 58.2467C66.3914 58.528 66.4239 58.8165 66.4211 59.1057V66.5875C65.9274 66.7148 65.4059 66.6813 64.9325 66.4919C64.4591 66.3025 64.0584 65.9672 63.7886 65.5345C63.1441 65.9189 62.478 66.2659 61.7935 66.5736C61.3598 66.7053 60.9013 66.7338 60.4546 66.6569C60.0079 66.5799 59.5853 66.3997 59.2206 66.1306C58.8559 65.8614 58.5591 65.5107 58.3539 65.1066C58.1487 64.7024 58.0408 64.2559 58.0388 63.8026C57.9813 63.2999 58.1103 62.7936 58.4015 62.3798C58.6927 61.966 59.1257 61.6736 59.6183 61.5581C60.8375 61.0731 62.0706 60.6713 63.3176 60.2695C63.3822 60.2579 63.444 60.2335 63.4992 60.1979C63.5544 60.1623 63.6021 60.1161 63.6394 60.0621C63.6768 60.008 63.703 59.9471 63.7168 59.8828C63.7305 59.8186 63.7314 59.7522 63.7194 59.6876C63.759 59.3033 63.7179 58.915 63.5986 58.5475C63.4793 58.1801 63.2845 57.8416 63.0266 57.5539C62.7045 57.2785 62.3044 57.1105 61.8822 57.0732C61.46 57.036 61.0367 57.1313 60.6712 57.3461C60.5743 57.3461 60.5466 57.6093 60.5189 57.7617C60.4496 58.1774 60.408 58.6069 60.3526 59.1472" fill="#1D1D1B"/>
<path d="M15.4755 60.034H18.8145C18.8825 60.0161 18.9448 59.9814 18.9957 59.9329C19.0466 59.8845 19.0844 59.8239 19.1055 59.7568C19.2252 58.9309 19.0694 58.0885 18.6622 57.3599C18.581 57.1998 18.4647 57.0601 18.322 56.9512C18.1793 56.8424 18.0139 56.7671 17.8381 56.7312C17.6622 56.6952 17.4805 56.6994 17.3065 56.7435C17.1325 56.7876 16.9708 56.8704 16.8333 56.9858C16.4019 57.3716 16.0558 57.8433 15.8172 58.3705C15.5786 58.8978 15.4528 59.4691 15.4478 60.0478L15.4755 60.034ZM15.4478 61.1562C15.3579 61.843 15.4591 62.5413 15.7402 63.1744C16.0213 63.8074 16.4714 64.3507 17.0411 64.7447C17.3409 64.9682 17.6864 65.1226 18.0529 65.1968C18.4194 65.2711 18.7978 65.2634 19.1609 65.1742C19.4629 65.0356 19.7429 64.8535 19.9922 64.6339L21.4886 63.6224C21.6064 63.7565 21.6715 63.9289 21.6715 64.1074C21.6715 64.2859 21.6064 64.4583 21.4886 64.5923C21.0847 65.1501 20.62 65.6613 20.1031 66.1163C19.7614 66.3278 19.379 66.4647 18.9808 66.5181C17.6237 66.881 16.1809 66.7382 14.9213 66.1163C14.2739 65.7945 13.7148 65.3197 13.2923 64.733C12.8698 64.1464 12.5967 63.4655 12.4966 62.7496C12.1942 61.3786 12.355 59.946 12.9538 58.6762C13.277 57.9877 13.7513 57.381 14.3414 56.9013C14.9316 56.4215 15.6223 56.081 16.3622 55.9051C17.0949 55.6856 17.8714 55.657 18.6183 55.8219C19.3651 55.9868 20.0574 56.3397 20.6296 56.8473C21.3096 57.4682 21.726 58.3259 21.7934 59.2442C21.8484 59.4945 21.8763 59.75 21.8765 60.0063C21.8765 60.699 21.6271 60.9069 20.8651 61.0038C20.1031 61.1008 19.4103 61.1562 18.676 61.1701C17.5953 61.1701 16.5146 61.1701 15.3785 61.1701" fill="#1D1D1B"/>
<path d="M70.8823 60.034H74.2075C74.2815 60.0131 74.3492 59.9744 74.4048 59.9212C74.4603 59.8681 74.502 59.8022 74.5262 59.7292C74.6399 58.9289 74.4943 58.1131 74.1105 57.4016C74.0259 57.2337 73.9041 57.0874 73.7542 56.9738C73.6044 56.8602 73.4306 56.7825 73.2461 56.7464C73.0616 56.7103 72.8713 56.7168 72.6898 56.7656C72.5082 56.8143 72.3402 56.9039 72.1985 57.0275C71.4019 57.8372 70.933 58.9131 70.8823 60.0479V60.034ZM70.9655 61.1563C70.8394 61.9927 71.0083 62.8469 71.4431 63.5724C71.8779 64.2979 72.5515 64.8495 73.3485 65.1327C73.7659 65.2407 74.2043 65.2375 74.62 65.1232C75.0357 65.0089 75.4142 64.7877 75.7177 64.4815C76.1057 64.1629 76.549 63.8996 76.9647 63.6225C77.08 63.7285 77.1522 63.8733 77.1675 64.0292C77.1829 64.1851 77.1403 64.3412 77.0478 64.4677C76.7474 65.1034 76.2788 65.6448 75.6926 66.0331C75.1064 66.4214 74.4252 66.6419 73.7226 66.6706C72.5725 66.7953 71.4111 66.5785 70.3835 66.0472C69.7414 65.7051 69.1918 65.2126 68.7816 64.6118C68.3714 64.011 68.1129 63.3198 68.0281 62.5972C67.8376 61.5494 67.8993 60.4713 68.2083 59.4521C68.4673 58.5282 68.9817 57.6961 69.6925 57.0515C70.4033 56.4069 71.2815 55.976 72.2262 55.8083C72.9637 55.6233 73.7371 55.6374 74.4674 55.8491C75.1977 56.0609 75.8586 56.4628 76.3828 57.0136C76.952 57.6242 77.2944 58.4116 77.3526 59.2443C77.3459 59.3319 77.3459 59.4199 77.3526 59.5075C77.5466 60.325 77.2279 60.8931 76.3966 60.9624C75.5653 61.0316 74.5955 61.1147 73.6949 61.1424C72.7943 61.1701 71.866 61.1424 70.9239 61.1424" fill="#1D1D1B"/>
<path d="M41.8294 60.0062C41.8294 59.5074 41.8294 59.0502 41.8294 58.6207C41.8258 58.3298 41.7638 58.0426 41.6472 57.776C41.5306 57.5095 41.3617 57.269 41.1505 57.0689C40.3192 56.3762 39.5711 56.7918 39.003 57.5677C38.5241 58.2967 38.2645 59.1479 38.2548 60.0201L41.8294 60.0062ZM38.241 61.1423C38.1201 61.98 38.2946 62.8337 38.7345 63.5567C39.1744 64.2798 39.8523 64.8272 40.6518 65.1049C40.993 65.2258 41.3603 65.2537 41.7159 65.1855C42.0714 65.1173 42.4023 64.9556 42.6746 64.717C43.1917 64.3146 43.7331 63.9444 44.2957 63.6085C44.406 63.7774 44.4564 63.9785 44.4388 64.1795C44.4212 64.3805 44.3367 64.5698 44.1987 64.717C43.7276 65.3681 43.3258 66.1025 42.4945 66.3103C41.8916 66.4993 41.2684 66.6156 40.6379 66.6567C39.5113 66.7768 38.3788 66.4893 37.446 65.8462C36.5131 65.2031 35.8415 64.247 35.5531 63.1513C35.1993 62.1055 35.1483 60.981 35.4056 59.9073C35.663 58.8337 36.2184 57.8546 37.0079 57.0828C37.7502 56.367 38.6947 55.8967 39.7132 55.7356C40.7318 55.5745 41.7753 55.7304 42.7023 56.1822C43.2337 56.4489 43.6927 56.8402 44.0402 57.3227C44.3876 57.8053 44.6131 58.3647 44.6974 58.9532C44.7388 59.1916 44.7666 59.4321 44.7806 59.6737C44.7806 60.7821 44.6421 60.7405 43.7276 60.8929C42.7053 61.0497 41.6721 61.1238 40.6379 61.1146C39.8343 61.1146 39.0169 61.1146 38.1856 61.1146" fill="#1D1D1B"/>
<path d="M51.0148 66.3521H46.7059V63.9551L46.6228 52.2891C46.6228 52.0259 46.5535 51.8596 46.3041 51.7765C46.099 51.7222 45.903 51.6381 45.7222 51.5271C45.5698 51.4301 45.3481 51.2639 45.3619 51.153C45.3758 51.0422 45.4451 50.6819 45.7776 50.5988C47.0259 50.2936 48.3031 50.1218 49.5877 50.0862C49.5877 50.4326 49.5877 50.7373 49.5877 51.056C49.5877 51.9289 49.5877 52.7879 49.5877 53.6608C49.5877 56.3302 49.5877 59.0042 49.5877 61.6829C49.5877 62.6943 49.5877 63.7057 49.6709 64.7172C49.6811 64.7873 49.7061 64.8545 49.7444 64.9142C49.7826 64.974 49.8331 65.0249 49.8926 65.0635C50.1558 65.216 50.4468 65.3129 50.7377 65.4515C51.2919 65.7009 51.2919 65.7009 51.0841 66.3521" fill="#1D1D1B"/>
<path d="M111.465 66.3658H106.491V65.8947C106.491 63.3454 106.491 60.8099 106.491 58.2606C106.511 58.1293 106.485 57.995 106.416 57.8811C106.348 57.7672 106.242 57.6808 106.116 57.6371C105.826 57.5097 105.548 57.3567 105.285 57.1799C105.285 56.5564 105.756 56.4455 106.186 56.3485C107.059 56.1407 107.931 55.9606 108.79 55.7389C109.04 55.6696 109.095 55.7389 109.123 55.9467C109.123 56.5009 109.262 57.0552 109.331 57.6509C109.795 56.9138 110.457 56.323 111.243 55.9467C111.565 55.7757 111.924 55.6863 112.289 55.6863C112.654 55.6863 113.013 55.7757 113.335 55.9467C113.384 55.9665 113.429 55.9959 113.467 56.0332C113.505 56.0704 113.535 56.1148 113.556 56.1637C113.576 56.2127 113.587 56.2653 113.587 56.3184C113.587 56.3715 113.577 56.4241 113.557 56.4732C113.266 57.3323 112.975 58.2051 112.642 59.0364C112.476 59.4798 112.199 59.466 111.963 59.0364C111.727 58.6811 111.514 58.3108 111.326 57.9281C111.132 57.554 110.896 57.4985 110.564 57.6786C110.191 57.8264 109.873 58.0879 109.657 58.4261C109.441 58.7643 109.336 59.1621 109.359 59.5629C109.359 61.2117 109.359 62.8743 109.359 64.5231C109.359 64.8417 109.442 64.9664 109.774 65.0357C110.107 65.105 110.647 65.3128 111.09 65.4514C111.534 65.5899 111.7 65.6453 111.451 66.2965" fill="#1D1D1B"/>
<path d="M85.9028 56.0298H88.3828C88.175 56.3485 88.078 56.7226 87.8563 56.8335C86.9289 57.4123 86.2669 58.3332 86.0136 59.3967C85.2239 61.3364 84.4895 63.3177 83.6582 65.2435C83.3321 65.762 82.9305 66.2289 82.4667 66.629C82.3697 66.7399 82.1619 66.7399 81.9818 66.7953L79.6818 61.1147C79.1276 59.7292 78.5595 58.3437 77.9915 56.9581C77.9393 56.7964 77.9067 56.6289 77.8945 56.4594C77.8945 56.0992 77.9915 55.9467 78.3794 55.9606H81.7601H82.2866L81.5523 57.1798C81.4798 57.2902 81.4502 57.4232 81.4691 57.5539C82.1203 59.3551 82.7715 61.1562 83.4781 63.0959L85.9028 55.9606" fill="#1D1D1B"/>
<path d="M57.3458 65.7008C57.3458 65.9086 57.2489 66.1303 57.1934 66.352H52.8706V65.867C52.8706 63.3177 52.8706 60.7545 52.8706 58.2051C52.9014 58.0296 52.866 57.8489 52.7714 57.6979C52.6767 57.5469 52.5294 57.4364 52.358 57.3877C52.1999 57.3364 52.0505 57.2616 51.9146 57.166C51.8038 57.069 51.6514 56.8889 51.6791 56.7781C51.7068 56.6672 51.873 56.404 52.0116 56.3763C53.1477 56.1546 54.2977 55.9606 55.4338 55.7528L55.7525 55.6697V56.1407C55.7525 58.9118 55.7525 61.7798 55.7525 64.5924C55.7337 64.7038 55.7555 64.8182 55.814 64.9148C55.8725 65.0115 55.9638 65.0839 56.0712 65.1189C56.4868 65.2851 56.9025 65.4929 57.3458 65.7008Z" fill="#1D1D1B"/>
<path d="M55.878 52.4136C55.7395 52.6076 55.6148 52.857 55.4485 53.0509C55.2822 53.2449 54.7835 53.716 54.4648 54.0485C54.4238 54.1057 54.3697 54.1523 54.307 54.1845C54.2444 54.2166 54.175 54.2334 54.1046 54.2334C54.0341 54.2334 53.9648 54.2166 53.9021 54.1845C53.8395 54.1523 53.7854 54.1057 53.7443 54.0485C53.3712 53.6364 53.0241 53.2014 52.7052 52.7461C52.6615 52.6628 52.6387 52.5701 52.6387 52.476C52.6387 52.3819 52.6615 52.2892 52.7052 52.2058C53.0793 51.7486 53.4949 51.3052 53.9244 50.8203C53.9658 50.7658 54.0192 50.7215 54.0805 50.6911C54.1418 50.6606 54.2093 50.6448 54.2777 50.6448C54.3462 50.6448 54.4137 50.6606 54.475 50.6911C54.5363 50.7215 54.5897 50.7658 54.6311 50.8203L55.7533 52.2058C55.7533 52.2058 55.7533 52.3305 55.8364 52.4552" fill="#1D1D1B"/>
<path d="M151.976 54.1871L152.683 53.9238V53.7437L151.976 53.522V54.1871ZM151.408 53.1479H152.697C152.974 53.1479 153.223 53.3142 153.223 53.6051C153.198 53.8721 153.133 54.1338 153.029 54.3811L153.362 55.337C152.932 55.4756 152.669 55.434 152.614 54.9491C152.612 54.8748 152.591 54.8022 152.554 54.7379C152.517 54.6736 152.464 54.6197 152.401 54.5811C152.337 54.5425 152.265 54.5204 152.191 54.5169C152.117 54.5135 152.043 54.5286 151.976 54.5612C151.976 54.8244 151.976 55.0876 151.976 55.3786H151.477L151.408 53.1479Z" fill="#1D1D1B"/>
</svg>
