<svg width="12" height="10" viewBox="0 0 12 10" fill="none" xmlns="http://www.w3.org/2000/svg">
<path d="M1.05469 0.889313H10.9453C11.5269 0.889313 12 1.36245 12 1.944V8.05608C12 8.63763 11.5269 9.11077 10.9453 9.11077H1.05469C0.473133 9.11077 0 8.63763 0 8.05608V1.944C0 1.36245 0.473133 0.889313 1.05469 0.889313ZM1.19234 1.59244L1.3331 1.70965L5.58155 5.24733C5.82403 5.44922 6.17602 5.44922 6.41845 5.24733L10.6669 1.70965L10.8077 1.59244H1.19234ZM11.2969 2.10005L7.83534 4.98246L11.2969 7.2862V2.10005ZM1.05469 8.40764H10.9453C11.1152 8.40764 11.2573 8.28652 11.2898 8.12613L7.27158 5.45189L6.86836 5.78766C6.61678 5.99714 6.30837 6.10188 5.99998 6.10188C5.69159 6.10188 5.3832 5.99714 5.13159 5.78766L4.72837 5.45189L0.710155 8.12611C0.742734 8.28654 0.884812 8.40764 1.05469 8.40764ZM0.703125 7.2862L4.16466 4.98248L0.703125 2.10005V7.2862Z" fill="#7E2E84"/>
</svg>
