<svg width="20" height="17" viewBox="0 0 20 17" fill="none" xmlns="http://www.w3.org/2000/svg">
<path d="M18.5107 5.20036L16.898 4.55416V1.1087C16.898 0.497385 16.4015 0 15.7912 0C15.2185 0 14.7461 0.438014 14.69 0.997172C12.9823 3.84201 8.83908 4.06522 7.60113 4.06522H3.91187C2.99478 4.06522 2.2318 4.73918 2.09066 5.61866L0.87104 5.92411C0.471086 6.02423 0.222656 6.30321 0.222656 6.65218V8.86952C0.222656 9.21849 0.471086 9.49747 0.87104 9.59763L2.09066 9.90308C2.23184 10.7825 2.99478 11.4565 3.91187 11.4565H4.28079V15.8385C4.28079 16.479 4.77727 17 5.38757 17H6.86323C7.47348 17 7.97001 16.479 7.97001 15.8385V11.4626C9.51561 11.5121 13.1251 11.9176 14.69 14.5245C14.746 15.0837 15.2185 15.5217 15.7912 15.5217C16.4015 15.5217 16.898 15.0244 16.898 14.413V10.9675L18.5107 10.3213C18.675 10.2555 19.1115 10.0806 19.1115 9.60863V5.91304C19.1115 5.44107 18.675 5.26616 18.5107 5.20036ZM0.960485 8.84556V6.67611C0.975967 6.66646 1.00506 6.65237 1.04993 6.64115L2.06723 6.38639V9.13531L1.04993 8.88052C1.00506 8.86929 0.976005 8.85525 0.960485 8.84556ZM6.86323 16.2608H5.38757C5.18761 16.2608 5.01865 16.0674 5.01865 15.8385V11.4564H7.23214V15.8384C7.23218 16.0674 7.06318 16.2608 6.86323 16.2608ZM11.7274 11.3898C10.3048 10.8812 8.87136 10.7487 7.97001 10.7228V9.42406C7.97001 9.21996 7.80484 9.0545 7.60109 9.0545C7.39735 9.0545 7.23218 9.21996 7.23218 9.42406V10.7173H3.91191C3.30165 10.7173 2.80513 10.22 2.80513 9.60863V5.91304C2.80513 5.30172 3.30162 4.80433 3.91191 4.80433H7.23218V6.09791C7.23218 6.30201 7.39735 6.46746 7.60109 6.46746C7.80484 6.46746 7.97001 6.30201 7.97001 6.09791V4.79885C8.87139 4.7729 10.3048 4.64049 11.7274 4.13188C12.9628 3.69018 13.9528 3.05641 14.6844 2.24163V13.28C13.9528 12.4653 12.9628 11.8315 11.7274 11.3898ZM16.1601 14.413C16.1601 14.6168 15.9946 14.7826 15.7912 14.7826C15.5878 14.7826 15.4223 14.6168 15.4223 14.413V1.1087C15.4223 0.904943 15.5878 0.739148 15.7912 0.739148C15.9946 0.739148 16.1601 0.904943 16.1601 1.1087V4.80433V10.7174V14.413ZM18.3737 9.57111C18.3521 9.58441 18.3119 9.60491 18.2367 9.63507L16.898 10.1715V5.3502L18.2367 5.88664C18.3119 5.91679 18.3522 5.93726 18.3737 5.95059L18.3737 9.57111Z" fill="#7E2E84"/>
</svg>
