<svg width="20" height="20" viewBox="0 0 20 20" fill="none" xmlns="http://www.w3.org/2000/svg">
<path d="M16.0236 11.7883C15.634 11.3826 15.1641 11.1658 14.6661 11.1658C14.1721 11.1658 13.6981 11.3786 13.2925 11.7843L12.0233 13.0494C11.9189 12.9932 11.8145 12.941 11.7141 12.8888C11.5695 12.8165 11.4329 12.7482 11.3165 12.6759C10.1276 11.9208 9.04723 10.9368 8.01102 9.66365C7.50898 9.02907 7.17161 8.49489 6.92661 7.95269C7.25595 7.65146 7.56119 7.33819 7.8584 7.03697C7.97086 6.92451 8.08331 6.80804 8.19577 6.69558C9.0392 5.85215 9.0392 4.75971 8.19577 3.91628L7.09931 2.81982C6.97481 2.69531 6.84628 2.56679 6.72579 2.43827C6.48482 2.18926 6.23179 1.93221 5.97072 1.69123C5.58114 1.30566 5.11525 1.10083 4.62525 1.10083C4.13526 1.10083 3.66133 1.30566 3.2597 1.69123C3.25569 1.69525 3.25569 1.69525 3.25167 1.69926L1.88612 3.07686C1.37203 3.59096 1.07883 4.2175 1.01457 4.94446C0.918182 6.11723 1.26359 7.20967 1.52866 7.92458C2.17931 9.67971 3.15126 11.3063 4.60116 13.0494C6.36031 15.15 8.47691 16.8087 10.8947 17.9774C11.8185 18.4152 13.0515 18.9333 14.4291 19.0217C14.5135 19.0257 14.6018 19.0297 14.6821 19.0297C15.6099 19.0297 16.3891 18.6964 16.9996 18.0337C17.0036 18.0256 17.0116 18.0216 17.0156 18.0136C17.2245 17.7606 17.4655 17.5316 17.7185 17.2866C17.8912 17.122 18.0679 16.9493 18.2406 16.7685C18.6382 16.3549 18.8471 15.8729 18.8471 15.3789C18.8471 14.8809 18.6342 14.4029 18.2286 14.0013L16.0236 11.7883ZM17.4614 16.0175C17.4574 16.0175 17.4574 16.0215 17.4614 16.0175C17.3048 16.1862 17.1442 16.3388 16.9715 16.5075C16.7104 16.7565 16.4453 17.0175 16.1963 17.3107C15.7907 17.7445 15.3127 17.9493 14.6862 17.9493C14.6259 17.9493 14.5617 17.9493 14.5014 17.9453C13.3086 17.869 12.2001 17.4031 11.3687 17.0055C9.09543 15.905 7.09931 14.3427 5.44057 12.3626C4.071 10.7119 3.15528 9.1857 2.54881 7.54704C2.17529 6.54697 2.03874 5.76781 2.09898 5.03282C2.13915 4.56291 2.31988 4.17332 2.65324 3.83997L4.0228 2.4704C4.2196 2.28565 4.42845 2.18524 4.63329 2.18524C4.88632 2.18524 5.09115 2.33786 5.21967 2.46638C5.22369 2.4704 5.2277 2.47442 5.23172 2.47843C5.47672 2.70736 5.70966 2.94433 5.95466 3.19735C6.07917 3.32588 6.20769 3.4544 6.33621 3.58694L7.43267 4.6834C7.8584 5.10913 7.8584 5.50273 7.43267 5.92846C7.3162 6.04493 7.20374 6.16141 7.08726 6.27386C6.74989 6.61927 6.42859 6.94057 6.07917 7.25385C6.07113 7.26188 6.0631 7.2659 6.05908 7.27393C5.71368 7.61933 5.77794 7.95671 5.85023 8.18564C5.85425 8.19769 5.85827 8.20973 5.86228 8.22178C6.14744 8.91259 6.54908 9.56324 7.15956 10.3384L7.16358 10.3424C8.27208 11.708 9.44083 12.7723 10.7301 13.5876C10.8947 13.692 11.0634 13.7764 11.2241 13.8567C11.3687 13.929 11.5052 13.9973 11.6217 14.0696C11.6378 14.0776 11.6538 14.0896 11.6699 14.0977C11.8065 14.166 11.935 14.1981 12.0675 14.1981C12.4009 14.1981 12.6097 13.9892 12.678 13.921L14.0516 12.5474C14.1881 12.4108 14.405 12.2461 14.658 12.2461C14.9071 12.2461 15.1119 12.4028 15.2364 12.5393C15.2404 12.5434 15.2404 12.5434 15.2444 12.5474L17.4574 14.7604C17.8711 15.17 17.8711 15.5918 17.4614 16.0175Z" />
<path d="M11.2686 4.52653C12.3208 4.70325 13.2767 5.20127 14.0398 5.96438C14.8029 6.72748 15.297 7.68337 15.4777 8.73564C15.5219 9.00072 15.7508 9.18547 16.0119 9.18547C16.044 9.18547 16.0721 9.18146 16.1042 9.17744C16.4014 9.12925 16.5982 8.8481 16.55 8.55089C16.3332 7.27772 15.7307 6.117 14.811 5.19726C13.8912 4.27752 12.7305 3.67507 11.4573 3.45819C11.1601 3.40999 10.883 3.60679 10.8308 3.89998C10.7786 4.19318 10.9714 4.47833 11.2686 4.52653Z" fill="#7E2E7A"/>
<path d="M19.9924 8.39436C19.635 6.29784 18.647 4.39008 17.1288 2.87191C15.6106 1.35374 13.7029 0.36572 11.6063 0.0082662C11.3132 -0.0439461 11.036 0.15687 10.9838 0.450063C10.9356 0.747271 11.1324 1.0244 11.4296 1.07661C13.3012 1.3939 15.0082 2.28151 16.3657 3.63501C17.7232 4.99253 18.6068 6.69947 18.9241 8.57108C18.9683 8.83616 19.1972 9.02091 19.4583 9.02091C19.4904 9.02091 19.5185 9.0169 19.5507 9.01288C19.8438 8.9687 20.0447 8.68756 19.9924 8.39436Z" fill="#7E2E7A"/>
</svg>
