<svg width="18" height="18" viewBox="0 0 18 18" fill="none" xmlns="http://www.w3.org/2000/svg">
<path d="M11.2013 13.0212H7.17998C6.80985 13.0212 6.50977 13.3213 6.50977 13.6915C6.50977 14.0616 6.80985 14.3617 7.17998 14.3617H11.2013C11.5714 14.3617 11.8715 14.0616 11.8715 13.6915C11.8715 13.3213 11.5714 13.0212 11.2013 13.0212Z" fill="#272C3E"/>
<path d="M9.49663 11.5468L12.1775 9.53618C12.4734 9.31384 12.533 8.8937 12.3107 8.5978C12.0886 8.30224 11.6691 8.24234 11.3732 8.46384H11.3744L9.76589 9.67022V4.30852C9.76589 3.93839 9.4658 3.63831 9.09567 3.63831C8.72555 3.63831 8.42546 3.93839 8.42546 4.30852V9.67022L6.81695 8.46384C6.52105 8.2415 6.10091 8.30115 5.87857 8.59704C5.65623 8.89294 5.71588 9.31308 6.01178 9.53543C6.01211 9.53568 6.01236 9.53593 6.0127 9.5361L8.69355 11.5467C8.74716 11.5824 8.90014 11.6741 9.11419 11.6685C9.30562 11.6634 9.44184 11.5833 9.49663 11.5468Z" fill="#272C3E"/>
<circle cx="9" cy="9" r="8.42553" stroke="#272C3E" stroke-width="1.14894"/>
</svg>
