<svg width="62" height="62" viewBox="0 0 62 62" fill="none" xmlns="http://www.w3.org/2000/svg">
<path d="M48.6537 16.6068H13.3484C12.8463 16.6068 12.4395 17.0137 12.4395 17.5157C12.4395 18.0178 12.8463 18.4247 13.3484 18.4247H48.6537C49.1558 18.4247 49.5627 18.0178 49.5627 17.5157C49.5627 17.0137 49.1558 16.6068 48.6537 16.6068Z" fill="black"/>
<path d="M48.6537 26.5037H13.3484C12.8463 26.5037 12.4395 26.9105 12.4395 27.4126C12.4395 27.9145 12.8463 28.3215 13.3484 28.3215H48.6537C49.1558 28.3215 49.5627 27.9146 49.5627 27.4126C49.5627 26.9105 49.1558 26.5037 48.6537 26.5037Z" fill="black"/>
<path d="M37.0787 32.9265H24.9226C24.4205 32.9265 24.0137 33.3334 24.0137 33.8354C24.0137 34.3374 24.4205 34.7444 24.9226 34.7444H37.0787C37.5808 34.7444 37.9877 34.3375 37.9877 33.8354C37.9877 33.3334 37.5808 32.9265 37.0787 32.9265Z" fill="black"/>
<path d="M48.6538 21.5352H22.3191C21.817 21.5352 21.4102 21.942 21.4102 22.4441C21.4102 22.946 21.817 23.353 22.3191 23.353H48.6538C49.1559 23.353 49.5628 22.9461 49.5628 22.4441C49.5628 21.942 49.1559 21.5352 48.6538 21.5352Z" fill="black"/>
<path d="M18.0902 21.535H13.3484C12.8463 21.535 12.4395 21.9419 12.4395 22.444C12.4395 22.946 12.8463 23.3529 13.3484 23.3529H18.0902C18.5922 23.3529 18.9991 22.946 18.9991 22.444C18.9991 21.942 18.5922 21.535 18.0902 21.535Z" fill="black"/>
<path d="M57.3076 15.0706C57.0962 14.863 56.8163 14.7486 56.5178 14.7486C56.5176 14.7486 56.5175 14.7486 56.5172 14.7486C54.675 14.7486 53.1673 13.3086 53.0843 11.4697C53.0571 10.8717 52.5657 10.4034 51.9657 10.4034H9.81778C9.21764 10.4034 8.72612 10.8718 8.699 11.4703C8.61992 13.2275 7.18145 14.6661 5.42414 14.7451C4.82593 14.772 4.35742 15.2635 4.35742 15.8639V39.3587C4.35742 39.959 4.82593 40.4504 5.42414 40.4773C7.18145 40.5565 8.61992 41.995 8.699 43.7528C8.72624 44.3507 9.21776 44.819 9.81778 44.819H36.6494C37.1514 44.819 37.5583 44.4121 37.5583 43.9101C37.5583 43.4081 37.1514 43.0011 36.6494 43.0011H10.4429C10.0671 40.8119 8.36441 39.1092 6.17516 38.7333V16.4889C8.36441 16.1131 10.0671 14.4101 10.4429 12.2212H51.3409C51.7321 14.4796 53.5503 16.2228 55.8246 16.5212V31.9569C55.8246 32.4589 56.2314 32.8658 56.7335 32.8658C57.2356 32.8658 57.6424 32.459 57.6424 31.9569V15.869C57.6424 15.5664 57.5235 15.2828 57.3076 15.0706Z" fill="black"/>
<path d="M59.477 5.86633H2.52299C1.13186 5.86633 0 6.9982 0 8.38932V46.833C0 48.2242 1.13186 49.3559 2.52299 49.3559H40.6733L39.3227 52.1863C39.1491 52.5497 39.1914 52.9758 39.4326 53.2981C39.6739 53.6206 40.071 53.7808 40.4683 53.7173L42.983 53.313L44.3856 55.6154C44.5822 55.9385 44.9317 56.1334 45.3072 56.1334C45.3255 56.1334 45.3439 56.133 45.3623 56.132C45.7585 56.1119 46.1108 55.877 46.2819 55.5188L48.719 50.4119L51.1559 55.5184C51.3267 55.8766 51.6789 56.1118 52.0753 56.1321C52.0938 56.1331 52.1125 56.1336 52.1309 56.1336C52.5064 56.1336 52.8558 55.9386 53.0525 55.6156L54.4551 53.3133L56.9698 53.7176C57.3683 53.7813 57.7646 53.6206 58.0057 53.298C58.2469 52.9754 58.2888 52.5494 58.1153 52.1866L56.7646 49.3563H59.477C60.8681 49.3563 62 48.2246 62 46.8333V8.38932C62 6.9982 60.8681 5.86633 59.477 5.86633ZM45.2286 53.5052L44.2772 51.9437C44.0481 51.5676 43.6192 51.3697 43.184 51.4396L41.5693 51.6992L43.2702 48.1352C43.9406 48.8193 44.8956 49.1888 45.887 49.0955C46.226 49.063 46.5658 49.1543 46.8434 49.3516C46.935 49.4167 47.03 49.4745 47.1263 49.529L45.2286 53.5052ZM48.9358 48.1156C48.933 48.1159 48.9302 48.1162 48.9273 48.1167C48.7895 48.137 48.6494 48.137 48.5116 48.1168C48.5081 48.1163 48.5046 48.1159 48.5012 48.1155C48.2877 48.0824 48.0802 48.0007 47.8963 47.87C47.3466 47.4791 46.6901 47.2713 46.0205 47.2713C45.919 47.2713 45.8173 47.2762 45.7156 47.2857C45.1138 47.3425 44.5422 47.0121 44.291 46.4633C44.1795 46.2196 44.0372 45.9941 43.872 45.7879C43.8648 45.7776 43.8568 45.7679 43.8491 45.758C43.8399 45.7469 43.8313 45.7354 43.8221 45.7243C43.8116 45.712 43.8006 45.7002 43.7893 45.6885C43.4888 45.3427 43.1174 45.0603 42.6944 44.8668C42.1455 44.6156 41.815 44.0431 41.8719 43.4421C41.9451 42.6688 41.7376 41.8943 41.2876 41.2613C40.9378 40.7693 40.9378 40.1083 41.2875 39.6162C41.7376 38.9833 41.9451 38.2088 41.8719 37.4355C41.815 36.8345 42.1456 36.262 42.6944 36.0108C43.4007 35.6876 43.9677 35.1206 44.2909 34.4143C44.5422 33.8654 45.1159 33.5348 45.7156 33.5918C46.4897 33.6649 47.2635 33.4574 47.8965 33.0074C48.3886 32.6577 49.0496 32.6577 49.5415 33.0074C50.1746 33.4574 50.9485 33.6644 51.7224 33.5918C52.3239 33.5347 52.8961 33.8655 53.1472 34.4143C53.4704 35.1206 54.0374 35.6876 54.7436 36.0107C55.2925 36.262 55.6231 36.8345 55.5662 37.4354C55.493 38.2088 55.7005 38.9833 56.1504 39.6161C56.5003 40.1081 56.5003 40.7692 56.1504 41.2612C55.7005 41.8943 55.493 42.6688 55.5662 43.442C55.6231 44.043 55.2925 44.6155 54.7435 44.8668C54.3214 45.0599 53.9509 45.3416 53.6507 45.6863C53.6384 45.6992 53.6262 45.7121 53.6149 45.7256C53.607 45.735 53.5996 45.7448 53.5917 45.7544C53.5827 45.766 53.5734 45.7774 53.565 45.7894C53.4003 45.9952 53.2584 46.2202 53.1472 46.4633C52.8959 47.0121 52.3234 47.3428 51.7224 47.2857C50.9498 47.2129 50.1748 47.42 49.5415 47.87C49.3574 48.0008 49.1497 48.0826 48.9358 48.1156ZM54.254 51.4395C53.8187 51.3699 53.39 51.5676 53.1608 51.9438L52.2094 53.5053L50.3118 49.529C50.4081 49.4745 50.503 49.4167 50.5947 49.3516C50.8725 49.1542 51.2125 49.0627 51.5511 49.0953C52.5428 49.1888 53.4976 48.8193 54.168 48.1352L55.8688 51.6991L54.254 51.4395ZM60.1823 46.8331C60.1823 47.2219 59.866 47.5383 59.477 47.5383H55.8971L55.4285 46.5563C55.4521 46.5438 55.4756 46.5307 55.5 46.5196C56.7517 45.9467 57.5055 44.641 57.3758 43.2707C57.3437 42.9317 57.4346 42.592 57.632 42.3143C58.4296 41.1924 58.4296 39.6848 57.6319 38.5629C57.4346 38.2853 57.3437 37.9458 57.3758 37.6066C57.5055 36.2363 56.7517 34.9306 55.4999 34.3578C55.1903 34.216 54.9417 33.9673 54.7999 33.6577C54.2271 32.406 52.9209 31.6524 51.5509 31.782C51.2116 31.8143 50.8722 31.7231 50.5947 31.5257C49.4727 30.7282 47.965 30.7281 46.8432 31.5257C46.5655 31.7231 46.2251 31.8143 45.8869 31.7818C44.5149 31.6528 43.2107 32.406 42.6381 33.6576C42.4963 33.9673 42.2477 34.2158 41.9379 34.3576C40.6863 34.9305 39.9325 36.236 40.0622 37.6065C40.0943 37.9456 40.0033 38.2852 39.8059 38.5629C39.0084 39.6848 39.0084 41.1924 39.8059 42.3142C40.0033 42.5918 40.0943 42.9314 40.0622 43.2706C39.9325 44.641 40.6863 45.9467 41.9379 46.5194C41.9624 46.5306 41.9857 46.5437 42.0094 46.5561L41.5407 47.5383H2.52299C2.13416 47.5383 1.81774 47.222 1.81774 46.8331V8.38932C1.81774 8.00049 2.13404 7.68407 2.52299 7.68407H59.477C59.8658 7.68407 60.1823 8.00049 60.1823 8.38932V46.8331Z" fill="black"/>
<path d="M48.6529 34.7917C45.5391 34.7917 43.0059 37.325 43.0059 40.4387C43.0059 43.5525 45.5391 46.0858 48.6529 46.0858C51.7668 46.0858 54.2999 43.5524 54.2999 40.4387C54.2999 37.3249 51.7668 34.7917 48.6529 34.7917ZM48.6529 44.2679C46.5414 44.2679 44.8236 42.5501 44.8236 40.4386C44.8236 38.3272 46.5414 36.6094 48.6529 36.6094C50.7643 36.6094 52.4822 38.3272 52.4822 40.4386C52.4822 42.5501 50.7643 44.2679 48.6529 44.2679Z" fill="black"/>
</svg>
