<svg width="45" height="44" viewBox="0 0 45 44" fill="none" xmlns="http://www.w3.org/2000/svg">
<g clip-path="url(#clip0)">
<path d="M25.4796 28.844C24.4136 28.0995 23.2624 27.4852 22.0506 27.014C23.6979 25.5217 24.7154 23.4583 24.8966 21.243C27.0502 19.1496 29.8649 17.8706 32.8583 17.6254C35.8516 17.3801 38.837 18.184 41.3026 19.899C41.4875 20.0331 41.6972 20.129 41.9196 20.1812C42.142 20.2333 42.3725 20.2406 42.5977 20.2026C42.8229 20.1647 43.0383 20.0822 43.2313 19.9601C43.4243 19.8379 43.591 19.6785 43.7217 19.4912C43.8524 19.3039 43.9445 19.0924 43.9925 18.8691C44.0406 18.6458 44.0437 18.4152 44.0016 18.1907C43.9595 17.9662 43.8731 17.7524 43.7474 17.5617C43.6217 17.371 43.4593 17.2072 43.2696 17.08C42.2035 16.3357 41.0523 15.7213 39.8406 15.25C41.1508 14.0615 42.0707 12.5045 42.4796 10.7835C42.8885 9.06247 42.7672 7.25803 42.1315 5.60727C41.4959 3.95652 40.3757 2.53668 38.9182 1.53434C37.4607 0.532008 35.734 -0.00592946 33.9651 -0.00877769C32.1962 -0.0116259 30.4679 0.520748 29.0071 1.51839C27.5464 2.51602 26.4217 3.93224 25.7807 5.58094C25.1398 7.22964 25.0126 9.03368 25.4159 10.756C25.8193 12.4783 26.7342 14.0383 28.0406 15.231C27.8006 15.323 27.5623 15.421 27.3256 15.525C26.2566 15.9949 25.2411 16.5783 24.2966 17.265C23.8073 16.0433 23.0491 14.9474 22.0784 14.0588C21.1076 13.1702 19.9492 12.5117 18.6891 12.132C17.429 11.7523 16.0996 11.6614 14.7995 11.8658C13.4994 12.0702 12.2621 12.5648 11.1793 13.3129C10.0965 14.0609 9.19614 15.0432 8.54494 16.1869C7.89374 17.3305 7.50847 18.6061 7.41771 19.919C7.32696 21.232 7.53306 22.5485 8.02071 23.7708C8.50836 24.9932 9.26504 26.09 10.2346 26.98C7.90557 27.8349 5.79887 29.2032 4.0707 30.9833C2.34254 32.7634 1.03724 34.9097 0.251588 37.263C0.00281096 38.0364 -0.0596835 38.8578 0.0691984 39.66C0.19808 40.4622 0.514691 41.2226 0.993227 41.8792C1.47176 42.5359 2.09868 43.0702 2.82288 43.4385C3.54709 43.8069 4.34808 43.9989 5.16059 43.999H20.1136C20.5695 43.999 21.0067 43.8179 21.3291 43.4955C21.6515 43.1731 21.8326 42.7359 21.8326 42.28C21.8326 41.8241 21.6515 41.3868 21.3291 41.0644C21.0067 40.7421 20.5695 40.561 20.1136 40.561H5.16059C4.88969 40.5609 4.62265 40.4968 4.38121 40.3739C4.13977 40.2511 3.93076 40.073 3.7712 39.8541C3.61165 39.6351 3.50605 39.3816 3.46302 39.1142C3.41999 38.8467 3.44074 38.5729 3.52359 38.315C4.42139 35.6896 6.12007 33.4119 8.38043 31.8028C10.6408 30.1936 13.349 29.334 16.1236 29.345C18.7665 29.3393 21.347 30.1484 23.5136 31.662C23.6984 31.7981 23.9085 31.8958 24.1317 31.9494C24.3548 32.003 24.5864 32.0114 24.8128 31.974C25.0393 31.9367 25.2559 31.8544 25.45 31.7319C25.6442 31.6095 25.8118 31.4495 25.9431 31.2613C26.0744 31.073 26.1666 30.8604 26.2144 30.636C26.2622 30.4115 26.2646 30.1797 26.2214 29.9544C26.1782 29.729 26.0903 29.5145 25.9629 29.3236C25.8355 29.1328 25.6712 28.9693 25.4796 28.843V28.844ZM33.9496 3.43796C35.0034 3.43796 36.0335 3.75044 36.9097 4.33589C37.7859 4.92134 38.4688 5.75346 38.872 6.72703C39.2753 7.70059 39.3808 8.77187 39.1752 9.8054C38.9696 10.8389 38.4622 11.7883 37.7171 12.5334C36.9719 13.2786 36.0226 13.786 34.989 13.9916C33.9555 14.1972 32.8842 14.0917 31.9107 13.6884C30.9371 13.2851 30.105 12.6022 29.5195 11.726C28.9341 10.8499 28.6216 9.81974 28.6216 8.76596C28.6232 7.35338 29.185 5.9991 30.1839 5.00025C31.1827 4.0014 32.537 3.43955 33.9496 3.43796ZM16.1606 15.199C17.2144 15.199 18.2445 15.5114 19.1207 16.0969C19.9969 16.6823 20.6798 17.5145 21.083 18.488C21.4863 19.4616 21.5918 20.5329 21.3862 21.5664C21.1806 22.5999 20.6732 23.5493 19.9281 24.2944C19.1829 25.0396 18.2336 25.547 17.2 25.7526C16.1665 25.9582 15.0952 25.8527 14.1217 25.4494C13.1481 25.0461 12.316 24.3632 11.7305 23.487C11.1451 22.6109 10.8326 21.5807 10.8326 20.527C10.8342 19.1144 11.396 17.7601 12.3949 16.7613C13.3937 15.7624 14.748 15.2006 16.1606 15.199ZM44.0046 35.836C44.0046 36.2919 43.8235 36.7291 43.5011 37.0515C43.1787 37.3739 42.7415 37.555 42.2856 37.555H37.5586V42.281C37.5586 42.5067 37.5141 42.7302 37.4277 42.9388C37.3414 43.1474 37.2147 43.3369 37.0551 43.4965C36.8955 43.6561 36.706 43.7827 36.4974 43.8691C36.2889 43.9555 36.0653 44 35.8396 44C35.6138 44 35.3903 43.9555 35.1818 43.8691C34.9732 43.7827 34.7837 43.6561 34.6241 43.4965C34.4645 43.3369 34.3378 43.1474 34.2514 42.9388C34.1651 42.7302 34.1206 42.5067 34.1206 42.281V37.554H29.3966C28.9407 37.554 28.5034 37.3729 28.1811 37.0505C27.8587 36.7281 27.6776 36.2909 27.6776 35.835C27.6776 35.3791 27.8587 34.9418 28.1811 34.6194C28.5034 34.2971 28.9407 34.116 29.3966 34.116H34.1226V29.39C34.1226 28.9341 34.3037 28.4968 34.6261 28.1744C34.9484 27.8521 35.3857 27.671 35.8416 27.671C36.2975 27.671 36.7347 27.8521 37.0571 28.1744C37.3795 28.4968 37.5606 28.9341 37.5606 29.39V34.116H42.2866C42.5123 34.116 42.7359 34.1604 42.9444 34.2468C43.153 34.3332 43.3425 34.4598 43.5021 34.6194C43.6617 34.7791 43.7883 34.9686 43.8747 35.1771C43.9611 35.3857 44.0056 35.6092 44.0056 35.835L44.0046 35.836Z" fill="#232020"/>
</g>
<defs>
<clipPath id="clip0">
<rect width="44.005" height="44" fill="white"/>
</clipPath>
</defs>
</svg>
