<svg width="19" height="12" viewBox="0 0 19 12" fill="none" xmlns="http://www.w3.org/2000/svg">
<path d="M18.8306 10.398C18.7796 10.3124 18.4637 9.62602 16.9436 8.21517C15.3522 6.73781 15.566 6.9777 17.4827 4.4232C18.6501 2.86746 19.1169 1.91739 18.9708 1.51124C18.8318 1.12408 17.9732 1.22622 17.9732 1.22622L15.1183 1.24284C15.1183 1.24284 14.9069 1.21434 14.7489 1.30816C14.5957 1.40079 14.4971 1.61456 14.4971 1.61456C14.4971 1.61456 14.0447 2.81877 13.4414 3.84247C12.1695 6.00269 11.66 6.1167 11.4522 5.9825C10.9688 5.67017 11.09 4.72603 11.09 4.05624C11.09 1.96252 11.407 1.08964 10.4712 0.864001C10.1601 0.789183 9.93206 0.739305 9.13756 0.730991C8.11861 0.720303 7.25524 0.734554 6.76714 0.973259C6.44174 1.1324 6.19116 1.48748 6.34436 1.50767C6.53318 1.53261 6.96071 1.62287 7.18754 1.93164C7.48088 2.32948 7.47019 3.22492 7.47019 3.22492C7.47019 3.22492 7.63883 5.68917 7.0771 5.99557C6.69113 6.20577 6.16265 5.77705 5.02851 3.81634C4.44778 2.81283 4.00837 1.70244 4.00837 1.70244C4.00837 1.70244 3.92405 1.4958 3.77323 1.38535C3.59034 1.25115 3.33382 1.2084 3.33382 1.2084L0.618998 1.22503C0.618998 1.22503 0.211656 1.2369 0.0620197 1.41385C-0.0709901 1.5718 0.0513314 1.8972 0.0513314 1.8972C0.0513314 1.8972 2.17711 6.86963 4.58316 9.37663C6.79089 11.6746 9.2967 11.5238 9.2967 11.5238H10.432C10.432 11.5238 10.7752 11.4858 10.9498 11.297C11.1113 11.1236 11.1054 10.7982 11.1054 10.7982C11.1054 10.7982 11.0828 9.27449 11.7906 9.05004C12.4877 8.82915 13.3832 10.5226 14.3321 11.1746C15.0494 11.6675 15.5945 11.5594 15.5945 11.5594L18.1323 11.5238C18.1323 11.5238 19.4601 11.4418 18.8306 10.398Z" fill="white"/>
</svg>
