<svg width="16" height="19" viewBox="0 0 16 19" fill="none" xmlns="http://www.w3.org/2000/svg">
<path d="M15.7232 9.62694C15.5274 8.77597 14.8313 8.14826 13.9935 8.05482C12.01 7.83325 10.0015 7.8322 8.00272 7.83325C6.00314 7.8322 3.99498 7.83325 2.01087 8.05482C1.1735 8.14847 0.477843 8.77618 0.282191 9.62694C0.00334446 10.8387 0 12.1614 0 13.4091C0 14.6568 2.49183e-08 15.9794 0.278846 17.1911C0.474498 18.0419 1.17015 18.6696 2.00794 18.7632C3.99164 18.985 5.99979 18.9858 7.99916 18.985C9.99875 18.986 12.0065 18.985 13.9908 18.7632C14.8282 18.6696 15.5242 18.0419 15.7199 17.1911C15.9985 15.9794 16 14.6568 16 13.4091C15.9998 12.1612 16.0019 10.8387 15.7232 9.62694ZM4.56375 10.5661H3.40573V16.7195H2.33006V10.5661H1.19314V9.55816H4.56375V10.5661ZM7.48537 16.7197H6.51777V16.1376C6.13336 16.5782 5.7684 16.7931 5.41284 16.7931C5.10117 16.7931 4.88671 16.6669 4.78993 16.3966C4.73725 16.2352 4.70464 15.9798 4.70464 15.6031V11.3836H5.67141V15.3123C5.67141 15.5389 5.67141 15.6566 5.68018 15.6884C5.70339 15.8385 5.77676 15.9146 5.90636 15.9146C6.10034 15.9146 6.30309 15.7651 6.51756 15.4618V11.3836H7.48516L7.48537 16.7197ZM11.1587 15.1182C11.1587 15.6117 11.1254 15.9672 11.0608 16.1934C10.9316 16.5904 10.6731 16.7931 10.2885 16.7931C9.9444 16.7931 9.61246 16.6021 9.28909 16.2028V16.72H8.32232V9.55816H9.28909V11.897C9.60138 11.5126 9.9329 11.3182 10.2885 11.3182C10.6731 11.3182 10.9319 11.5207 11.0608 11.9202C11.1258 12.1349 11.1587 12.4877 11.1587 12.9929V15.1182ZM14.8077 14.2279H12.874V15.1738C12.874 15.6677 13.0355 15.9144 13.3679 15.9144C13.606 15.9144 13.7446 15.785 13.7997 15.5266C13.8087 15.4741 13.8215 15.2593 13.8215 14.8715H14.8079V15.0126C14.8079 15.3243 14.796 15.5389 14.7872 15.6355C14.7548 15.8496 14.6787 16.0437 14.5615 16.2147C14.2937 16.6023 13.8969 16.7933 13.3919 16.7933C12.8861 16.7933 12.501 16.6113 12.2216 16.2469C12.0165 15.9798 11.9112 15.5592 11.9112 14.9921V13.1232C11.9112 12.5527 12.0046 12.1355 12.2101 11.8659C12.4893 11.5007 12.8742 11.3188 13.3681 11.3188C13.8533 11.3188 14.2379 11.5007 14.5088 11.8659C14.7113 12.1355 14.8081 12.5527 14.8081 13.1232V14.2279H14.8077Z" fill="white"/>
<path d="M13.3582 12.1888C13.035 12.1888 12.873 12.4357 12.873 12.929V13.4227H13.8398V12.929C13.8396 12.4357 13.678 12.1888 13.3582 12.1888Z" fill="white"/>
<path d="M9.77129 12.1888C9.61201 12.1888 9.45064 12.2641 9.28906 12.424V15.6763C9.45043 15.8381 9.61201 15.9146 9.77129 15.9146C10.0501 15.9146 10.1919 15.6763 10.1919 15.1945V12.9169C10.1919 12.4357 10.0501 12.1888 9.77129 12.1888Z" fill="white"/>
<path d="M10.3118 7.34143C10.6682 7.34143 11.0391 7.12487 11.4281 6.67922V7.26743H12.4053V1.87466H11.4281V5.99632C11.2115 6.30234 11.0062 6.45368 10.8108 6.45368C10.6799 6.45368 10.603 6.37634 10.5817 6.22479C10.5698 6.19281 10.5698 6.07387 10.5698 5.84498V1.87466H9.5957V6.13888C9.5957 6.51973 9.62831 6.77747 9.68224 6.94072C9.78049 7.21392 9.99725 7.34143 10.3118 7.34143Z" fill="white"/>
<path d="M3.50783 4.33659V7.2674H4.59144V4.33659L5.89496 0.0309906H4.79922L4.05988 2.87276L3.29065 0.0309906H2.15039C2.37886 0.701768 2.61653 1.37589 2.845 2.0473C3.19261 3.05649 3.40959 3.81736 3.50783 4.33659Z" fill="white"/>
<path d="M7.34786 7.34141C7.83741 7.34141 8.21784 7.15726 8.4877 6.78937C8.69276 6.51951 8.791 6.09434 8.791 5.52118V3.6328C8.791 3.0563 8.69297 2.63489 8.4877 2.36253C8.21784 1.99359 7.83762 1.80943 7.34786 1.80943C6.86082 1.80943 6.48059 1.99359 6.21011 2.36253C6.00254 2.63489 5.9043 3.0563 5.9043 3.6328V5.52118C5.9043 6.09434 6.00254 6.51951 6.21011 6.78937C6.48038 7.15726 6.86082 7.34141 7.34786 7.34141ZM6.88151 3.43694C6.88151 2.93799 7.03285 2.68924 7.34786 2.68924C7.66287 2.68924 7.81379 2.93778 7.81379 3.43694V5.70534C7.81379 6.20429 7.66287 6.45387 7.34786 6.45387C7.03285 6.45387 6.88151 6.20429 6.88151 5.70534V3.43694Z" fill="white"/>
</svg>
